<mxfile host="app.diagrams.net" modified="2022-04-16T08:49:27.377Z" agent="5.0 (Windows NT 10.0; Win64; x64) AppleWebKit/537.36 (KHTML, like Gecko) Chrome/99.0.4844.84 Safari/537.36" etag="umFCsKtd463HD_dtFLd8" version="17.4.5" type="gitlab" pages="10">
  <diagram id="C5RBs43oDa-KdzZeNtuy" name="Pharmacy/Pharmacist">
    <mxGraphModel dx="2222" dy="1187" grid="0" gridSize="10" guides="1" tooltips="1" connect="1" arrows="1" fold="1" page="0" pageScale="1" pageWidth="827" pageHeight="1169" math="0" shadow="0">
      <root>
        <mxCell id="WIyWlLk6GJQsqaUBKTNV-0" />
        <mxCell id="WIyWlLk6GJQsqaUBKTNV-1" parent="WIyWlLk6GJQsqaUBKTNV-0" />
        <mxCell id="Dos6IfHk-zw9CJUv5LPl-1" style="edgeStyle=orthogonalEdgeStyle;rounded=0;orthogonalLoop=1;jettySize=auto;html=1;exitX=1;exitY=0.5;exitDx=0;exitDy=0;entryX=0;entryY=0.5;entryDx=0;entryDy=0;" parent="WIyWlLk6GJQsqaUBKTNV-1" source="WIyWlLk6GJQsqaUBKTNV-3" target="WIyWlLk6GJQsqaUBKTNV-6" edge="1">
          <mxGeometry relative="1" as="geometry" />
        </mxCell>
        <mxCell id="Dos6IfHk-zw9CJUv5LPl-4" style="edgeStyle=orthogonalEdgeStyle;rounded=0;orthogonalLoop=1;jettySize=auto;html=1;exitX=0;exitY=0.5;exitDx=0;exitDy=0;fillColor=#f8cecc;strokeColor=#b85450;" parent="WIyWlLk6GJQsqaUBKTNV-1" source="WIyWlLk6GJQsqaUBKTNV-3" target="WIyWlLk6GJQsqaUBKTNV-10" edge="1">
          <mxGeometry relative="1" as="geometry" />
        </mxCell>
        <mxCell id="WIyWlLk6GJQsqaUBKTNV-3" value="Login page" style="rounded=1;whiteSpace=wrap;html=1;fontSize=12;glass=0;strokeWidth=1;shadow=0;fillColor=#d5e8d4;strokeColor=#82b366;" parent="WIyWlLk6GJQsqaUBKTNV-1" vertex="1">
          <mxGeometry x="360" y="130" width="120" height="40" as="geometry" />
        </mxCell>
        <mxCell id="Dos6IfHk-zw9CJUv5LPl-69" style="edgeStyle=orthogonalEdgeStyle;rounded=0;orthogonalLoop=1;jettySize=auto;html=1;exitX=0.5;exitY=1;exitDx=0;exitDy=0;entryX=0.5;entryY=0;entryDx=0;entryDy=0;fontColor=#050505;" parent="WIyWlLk6GJQsqaUBKTNV-1" source="WIyWlLk6GJQsqaUBKTNV-6" target="WIyWlLk6GJQsqaUBKTNV-7" edge="1">
          <mxGeometry relative="1" as="geometry" />
        </mxCell>
        <mxCell id="WIyWlLk6GJQsqaUBKTNV-6" value="User login" style="rhombus;whiteSpace=wrap;html=1;shadow=0;fontFamily=Helvetica;fontSize=12;align=center;strokeWidth=1;spacing=6;spacingTop=-4;fillColor=#dae8fc;strokeColor=#6c8ebf;" parent="WIyWlLk6GJQsqaUBKTNV-1" vertex="1">
          <mxGeometry x="600" y="110" width="100" height="80" as="geometry" />
        </mxCell>
        <mxCell id="Dos6IfHk-zw9CJUv5LPl-10" style="edgeStyle=orthogonalEdgeStyle;rounded=0;orthogonalLoop=1;jettySize=auto;html=1;exitX=0.5;exitY=1;exitDx=0;exitDy=0;" parent="WIyWlLk6GJQsqaUBKTNV-1" source="WIyWlLk6GJQsqaUBKTNV-7" target="Dos6IfHk-zw9CJUv5LPl-7" edge="1">
          <mxGeometry relative="1" as="geometry" />
        </mxCell>
        <mxCell id="Dos6IfHk-zw9CJUv5LPl-55" style="edgeStyle=orthogonalEdgeStyle;rounded=0;orthogonalLoop=1;jettySize=auto;html=1;exitX=1;exitY=0.25;exitDx=0;exitDy=0;entryX=0;entryY=0.5;entryDx=0;entryDy=0;" parent="WIyWlLk6GJQsqaUBKTNV-1" source="WIyWlLk6GJQsqaUBKTNV-7" target="Dos6IfHk-zw9CJUv5LPl-27" edge="1">
          <mxGeometry relative="1" as="geometry" />
        </mxCell>
        <mxCell id="WIyWlLk6GJQsqaUBKTNV-7" value="User dashboard" style="rounded=1;whiteSpace=wrap;html=1;fontSize=12;glass=0;strokeWidth=1;shadow=0;fillColor=#d5e8d4;strokeColor=#82b366;" parent="WIyWlLk6GJQsqaUBKTNV-1" vertex="1">
          <mxGeometry x="590" y="220" width="120" height="40" as="geometry" />
        </mxCell>
        <mxCell id="Dos6IfHk-zw9CJUv5LPl-59" style="edgeStyle=orthogonalEdgeStyle;rounded=0;orthogonalLoop=1;jettySize=auto;html=1;exitX=0;exitY=0.5;exitDx=0;exitDy=0;entryX=1;entryY=0.5;entryDx=0;entryDy=0;fillColor=#f8cecc;strokeColor=#b85450;" parent="WIyWlLk6GJQsqaUBKTNV-1" source="WIyWlLk6GJQsqaUBKTNV-10" target="Dos6IfHk-zw9CJUv5LPl-15" edge="1">
          <mxGeometry relative="1" as="geometry" />
        </mxCell>
        <mxCell id="WIyWlLk6GJQsqaUBKTNV-10" value="Admin login" style="rhombus;whiteSpace=wrap;html=1;shadow=0;fontFamily=Helvetica;fontSize=12;align=center;strokeWidth=1;spacing=6;spacingTop=-4;fillColor=#d5e8d4;strokeColor=#82b366;" parent="WIyWlLk6GJQsqaUBKTNV-1" vertex="1">
          <mxGeometry x="160" y="110" width="100" height="80" as="geometry" />
        </mxCell>
        <mxCell id="Dos6IfHk-zw9CJUv5LPl-56" style="edgeStyle=orthogonalEdgeStyle;rounded=0;orthogonalLoop=1;jettySize=auto;html=1;exitX=0.75;exitY=0;exitDx=0;exitDy=0;entryX=0.5;entryY=1;entryDx=0;entryDy=0;" parent="WIyWlLk6GJQsqaUBKTNV-1" source="WIyWlLk6GJQsqaUBKTNV-12" target="Dos6IfHk-zw9CJUv5LPl-13" edge="1">
          <mxGeometry relative="1" as="geometry" />
        </mxCell>
        <mxCell id="Dos6IfHk-zw9CJUv5LPl-57" style="edgeStyle=orthogonalEdgeStyle;rounded=0;orthogonalLoop=1;jettySize=auto;html=1;exitX=0.25;exitY=0;exitDx=0;exitDy=0;entryX=0.5;entryY=1;entryDx=0;entryDy=0;" parent="WIyWlLk6GJQsqaUBKTNV-1" source="WIyWlLk6GJQsqaUBKTNV-12" target="Dos6IfHk-zw9CJUv5LPl-6" edge="1">
          <mxGeometry relative="1" as="geometry" />
        </mxCell>
        <mxCell id="Dos6IfHk-zw9CJUv5LPl-61" style="edgeStyle=orthogonalEdgeStyle;rounded=0;orthogonalLoop=1;jettySize=auto;html=1;exitX=0.25;exitY=1;exitDx=0;exitDy=0;entryX=0.5;entryY=0;entryDx=0;entryDy=0;" parent="WIyWlLk6GJQsqaUBKTNV-1" source="WIyWlLk6GJQsqaUBKTNV-12" target="Dos6IfHk-zw9CJUv5LPl-11" edge="1">
          <mxGeometry relative="1" as="geometry" />
        </mxCell>
        <mxCell id="WIyWlLk6GJQsqaUBKTNV-12" value="Admin dashboard" style="rounded=1;whiteSpace=wrap;html=1;fontSize=12;glass=0;strokeWidth=1;shadow=0;fillColor=#fff2cc;strokeColor=#d6b656;" parent="WIyWlLk6GJQsqaUBKTNV-1" vertex="1">
          <mxGeometry x="-250" y="130" width="120" height="40" as="geometry" />
        </mxCell>
        <mxCell id="Dos6IfHk-zw9CJUv5LPl-6" value="Update Pharmacy&lt;br&gt;&amp;nbsp;profile" style="rounded=1;whiteSpace=wrap;html=1;fillColor=#fff2cc;strokeColor=#d6b656;" parent="WIyWlLk6GJQsqaUBKTNV-1" vertex="1">
          <mxGeometry x="-413" y="30" width="120" height="60" as="geometry" />
        </mxCell>
        <mxCell id="Dos6IfHk-zw9CJUv5LPl-7" value="Update password" style="rounded=1;whiteSpace=wrap;html=1;fillColor=#fff2cc;strokeColor=#d6b656;" parent="WIyWlLk6GJQsqaUBKTNV-1" vertex="1">
          <mxGeometry x="590" y="300" width="120" height="60" as="geometry" />
        </mxCell>
        <mxCell id="Dos6IfHk-zw9CJUv5LPl-11" value="Search for&amp;nbsp;&lt;span&gt;&lt;/span&gt;&lt;span&gt;&lt;/span&gt;&lt;span&gt;Pharmacist&amp;nbsp;&lt;/span&gt;" style="rounded=1;whiteSpace=wrap;html=1;fillColor=#fff2cc;strokeColor=#d6b656;" parent="WIyWlLk6GJQsqaUBKTNV-1" vertex="1">
          <mxGeometry x="-280" y="210" width="120" height="60" as="geometry" />
        </mxCell>
        <mxCell id="11dvm7PYEADuuS8FQwNl-2" style="edgeStyle=orthogonalEdgeStyle;rounded=0;orthogonalLoop=1;jettySize=auto;html=1;exitX=0.5;exitY=0;exitDx=0;exitDy=0;entryX=0.005;entryY=0.421;entryDx=0;entryDy=0;entryPerimeter=0;" parent="WIyWlLk6GJQsqaUBKTNV-1" source="Dos6IfHk-zw9CJUv5LPl-13" target="Dos6IfHk-zw9CJUv5LPl-66" edge="1">
          <mxGeometry relative="1" as="geometry">
            <mxPoint x="20" y="-260" as="targetPoint" />
          </mxGeometry>
        </mxCell>
        <mxCell id="Dos6IfHk-zw9CJUv5LPl-13" value="Add Pharmacist" style="rounded=1;whiteSpace=wrap;html=1;fillColor=#fff2cc;strokeColor=#d6b656;" parent="WIyWlLk6GJQsqaUBKTNV-1" vertex="1">
          <mxGeometry x="-220" y="20" width="120" height="60" as="geometry" />
        </mxCell>
        <mxCell id="Dos6IfHk-zw9CJUv5LPl-60" style="edgeStyle=orthogonalEdgeStyle;rounded=0;orthogonalLoop=1;jettySize=auto;html=1;exitX=0;exitY=0.5;exitDx=0;exitDy=0;entryX=1;entryY=0.5;entryDx=0;entryDy=0;fillColor=#d5e8d4;strokeColor=#82b366;" parent="WIyWlLk6GJQsqaUBKTNV-1" source="Dos6IfHk-zw9CJUv5LPl-15" target="WIyWlLk6GJQsqaUBKTNV-12" edge="1">
          <mxGeometry relative="1" as="geometry" />
        </mxCell>
        <mxCell id="Dos6IfHk-zw9CJUv5LPl-15" value="Agreements&lt;br&gt;Only once" style="rounded=1;whiteSpace=wrap;html=1;" parent="WIyWlLk6GJQsqaUBKTNV-1" vertex="1">
          <mxGeometry x="-80" y="120" width="120" height="60" as="geometry" />
        </mxCell>
        <mxCell id="Dos6IfHk-zw9CJUv5LPl-38" style="edgeStyle=orthogonalEdgeStyle;rounded=0;orthogonalLoop=1;jettySize=auto;html=1;exitX=1;exitY=0.5;exitDx=0;exitDy=0;entryX=0;entryY=0.5;entryDx=0;entryDy=0;" parent="WIyWlLk6GJQsqaUBKTNV-1" source="Dos6IfHk-zw9CJUv5LPl-27" target="Dos6IfHk-zw9CJUv5LPl-37" edge="1">
          <mxGeometry relative="1" as="geometry" />
        </mxCell>
        <mxCell id="Dos6IfHk-zw9CJUv5LPl-27" value="Scan QR code" style="rounded=1;whiteSpace=wrap;html=1;fillColor=#f8cecc;strokeColor=#b85450;" parent="WIyWlLk6GJQsqaUBKTNV-1" vertex="1">
          <mxGeometry x="790" y="130" width="120" height="60" as="geometry" />
        </mxCell>
        <mxCell id="Dos6IfHk-zw9CJUv5LPl-40" style="edgeStyle=orthogonalEdgeStyle;rounded=0;orthogonalLoop=1;jettySize=auto;html=1;exitX=1;exitY=0.5;exitDx=0;exitDy=0;fillColor=#d5e8d4;strokeColor=#82b366;" parent="WIyWlLk6GJQsqaUBKTNV-1" source="Dos6IfHk-zw9CJUv5LPl-37" edge="1">
          <mxGeometry relative="1" as="geometry">
            <mxPoint x="1110" y="150" as="sourcePoint" />
            <mxPoint x="1240" y="160" as="targetPoint" />
            <Array as="points">
              <mxPoint x="1230" y="160" />
            </Array>
          </mxGeometry>
        </mxCell>
        <mxCell id="Dos6IfHk-zw9CJUv5LPl-42" value="Flagged = true" style="edgeLabel;html=1;align=center;verticalAlign=middle;resizable=0;points=[];" parent="Dos6IfHk-zw9CJUv5LPl-40" vertex="1" connectable="0">
          <mxGeometry x="-0.3624" y="-1" relative="1" as="geometry">
            <mxPoint x="19" y="-1" as="offset" />
          </mxGeometry>
        </mxCell>
        <mxCell id="Dos6IfHk-zw9CJUv5LPl-50" style="edgeStyle=orthogonalEdgeStyle;rounded=0;orthogonalLoop=1;jettySize=auto;html=1;exitX=0.5;exitY=1;exitDx=0;exitDy=0;entryX=0.5;entryY=0;entryDx=0;entryDy=0;fillColor=#f8cecc;strokeColor=#b85450;" parent="WIyWlLk6GJQsqaUBKTNV-1" source="Dos6IfHk-zw9CJUv5LPl-37" target="Dos6IfHk-zw9CJUv5LPl-49" edge="1">
          <mxGeometry relative="1" as="geometry" />
        </mxCell>
        <mxCell id="Dos6IfHk-zw9CJUv5LPl-37" value="&lt;div&gt;&lt;span&gt;&lt;/span&gt;&lt;span&gt;&lt;/span&gt;&lt;span&gt;PRESCRIPTION details&lt;/span&gt;&lt;/div&gt;&lt;div&gt;&lt;span&gt;- national ID number?&lt;br&gt;&lt;/span&gt;&lt;/div&gt;" style="rounded=1;whiteSpace=wrap;html=1;fillColor=#fff2cc;strokeColor=#d6b656;" parent="WIyWlLk6GJQsqaUBKTNV-1" vertex="1">
          <mxGeometry x="960" y="130" width="120" height="60" as="geometry" />
        </mxCell>
        <mxCell id="Dos6IfHk-zw9CJUv5LPl-44" style="edgeStyle=orthogonalEdgeStyle;rounded=0;orthogonalLoop=1;jettySize=auto;html=1;exitX=0.595;exitY=-0.023;exitDx=0;exitDy=0;entryX=0.5;entryY=1;entryDx=0;entryDy=0;exitPerimeter=0;" parent="WIyWlLk6GJQsqaUBKTNV-1" source="Dos6IfHk-zw9CJUv5LPl-39" target="Dos6IfHk-zw9CJUv5LPl-43" edge="1">
          <mxGeometry relative="1" as="geometry">
            <mxPoint x="1260" y="110" as="targetPoint" />
          </mxGeometry>
        </mxCell>
        <mxCell id="Dos6IfHk-zw9CJUv5LPl-39" value="Chat with doctor?" style="rounded=1;whiteSpace=wrap;html=1;" parent="WIyWlLk6GJQsqaUBKTNV-1" vertex="1">
          <mxGeometry x="1241" y="130" width="120" height="60" as="geometry" />
        </mxCell>
        <mxCell id="Dos6IfHk-zw9CJUv5LPl-46" style="edgeStyle=orthogonalEdgeStyle;rounded=0;orthogonalLoop=1;jettySize=auto;html=1;exitX=0;exitY=0.5;exitDx=0;exitDy=0;entryX=0.418;entryY=-0.07;entryDx=0;entryDy=0;entryPerimeter=0;" parent="WIyWlLk6GJQsqaUBKTNV-1" source="Dos6IfHk-zw9CJUv5LPl-43" target="Dos6IfHk-zw9CJUv5LPl-37" edge="1">
          <mxGeometry relative="1" as="geometry" />
        </mxCell>
        <mxCell id="Dos6IfHk-zw9CJUv5LPl-47" value="Update prescription" style="edgeLabel;html=1;align=center;verticalAlign=middle;resizable=0;points=[];" parent="Dos6IfHk-zw9CJUv5LPl-46" vertex="1" connectable="0">
          <mxGeometry x="0.2052" y="1" relative="1" as="geometry">
            <mxPoint x="38" y="-1" as="offset" />
          </mxGeometry>
        </mxCell>
        <mxCell id="Dos6IfHk-zw9CJUv5LPl-43" value="Standby doctor&lt;br&gt;Component? Repo?&lt;br&gt;Integrated into Doctor UI?" style="rounded=1;whiteSpace=wrap;html=1;" parent="WIyWlLk6GJQsqaUBKTNV-1" vertex="1">
          <mxGeometry x="1241" y="12" width="135" height="78" as="geometry" />
        </mxCell>
        <mxCell id="Dos6IfHk-zw9CJUv5LPl-48" value="Send message to patient as well" style="text;html=1;align=center;verticalAlign=middle;resizable=0;points=[];autosize=1;strokeColor=none;fillColor=none;" parent="WIyWlLk6GJQsqaUBKTNV-1" vertex="1">
          <mxGeometry x="1010" y="30" width="190" height="20" as="geometry" />
        </mxCell>
        <mxCell id="Dos6IfHk-zw9CJUv5LPl-53" style="edgeStyle=orthogonalEdgeStyle;rounded=0;orthogonalLoop=1;jettySize=auto;html=1;exitX=0.5;exitY=1;exitDx=0;exitDy=0;entryX=1;entryY=0.75;entryDx=0;entryDy=0;" parent="WIyWlLk6GJQsqaUBKTNV-1" source="Dos6IfHk-zw9CJUv5LPl-49" target="WIyWlLk6GJQsqaUBKTNV-7" edge="1">
          <mxGeometry relative="1" as="geometry">
            <mxPoint x="1020" y="320" as="targetPoint" />
            <Array as="points">
              <mxPoint x="1020" y="310" />
              <mxPoint x="770" y="310" />
              <mxPoint x="770" y="250" />
            </Array>
          </mxGeometry>
        </mxCell>
        <mxCell id="Dos6IfHk-zw9CJUv5LPl-54" value="Finish state and send data to datebase" style="edgeLabel;html=1;align=center;verticalAlign=middle;resizable=0;points=[];" parent="Dos6IfHk-zw9CJUv5LPl-53" vertex="1" connectable="0">
          <mxGeometry x="-0.1333" y="-1" relative="1" as="geometry">
            <mxPoint x="19" y="1" as="offset" />
          </mxGeometry>
        </mxCell>
        <mxCell id="Dos6IfHk-zw9CJUv5LPl-49" value="Scan the drug or medication" style="rounded=1;whiteSpace=wrap;html=1;" parent="WIyWlLk6GJQsqaUBKTNV-1" vertex="1">
          <mxGeometry x="960" y="230" width="120" height="60" as="geometry" />
        </mxCell>
        <mxCell id="Dos6IfHk-zw9CJUv5LPl-51" value="Flagged false" style="text;html=1;align=center;verticalAlign=middle;resizable=0;points=[];autosize=1;strokeColor=none;fillColor=none;" parent="WIyWlLk6GJQsqaUBKTNV-1" vertex="1">
          <mxGeometry x="1020" y="200" width="90" height="20" as="geometry" />
        </mxCell>
        <mxCell id="Dos6IfHk-zw9CJUv5LPl-52" value="Should change flagged to false" style="text;html=1;align=center;verticalAlign=middle;resizable=0;points=[];autosize=1;strokeColor=none;fillColor=none;" parent="WIyWlLk6GJQsqaUBKTNV-1" vertex="1">
          <mxGeometry x="1020" y="70" width="180" height="20" as="geometry" />
        </mxCell>
        <mxCell id="Dos6IfHk-zw9CJUv5LPl-62" value="If agreement False" style="text;html=1;align=center;verticalAlign=middle;resizable=0;points=[];autosize=1;strokeColor=none;fillColor=none;" parent="WIyWlLk6GJQsqaUBKTNV-1" vertex="1">
          <mxGeometry x="45" y="120" width="120" height="20" as="geometry" />
        </mxCell>
        <mxCell id="Dos6IfHk-zw9CJUv5LPl-63" value="Else jump straight &lt;br&gt;to dashboard" style="text;html=1;align=center;verticalAlign=middle;resizable=0;points=[];autosize=1;strokeColor=none;fillColor=none;" parent="WIyWlLk6GJQsqaUBKTNV-1" vertex="1">
          <mxGeometry x="50" y="160" width="110" height="30" as="geometry" />
        </mxCell>
        <mxCell id="Dos6IfHk-zw9CJUv5LPl-64" value="True" style="text;html=1;align=center;verticalAlign=middle;resizable=0;points=[];autosize=1;strokeColor=none;fillColor=none;" parent="WIyWlLk6GJQsqaUBKTNV-1" vertex="1">
          <mxGeometry x="-120" y="130" width="40" height="20" as="geometry" />
        </mxCell>
        <mxCell id="Dos6IfHk-zw9CJUv5LPl-66" value="&lt;font style=&quot;font-size: 16px&quot;&gt;Pharmacist profile&lt;br&gt;title(i.e pharm D)&lt;br&gt;Pharmacist firstname&lt;br&gt;Pharmacist Lastname&lt;br&gt;Pharmacist Email&lt;br&gt;pharmacist mobile number&lt;br&gt;role = pharmacist&lt;/font&gt;" style="whiteSpace=wrap;html=1;fillColor=#dae8fc;strokeColor=#6c8ebf;" parent="WIyWlLk6GJQsqaUBKTNV-1" vertex="1">
          <mxGeometry x="540" y="-100" width="210" height="190" as="geometry" />
        </mxCell>
        <mxCell id="Dos6IfHk-zw9CJUv5LPl-67" value="&lt;span style=&quot;font-family: &amp;#34;whitney&amp;#34; , &amp;#34;helvetica neue&amp;#34; , &amp;#34;helvetica&amp;#34; , &amp;#34;arial&amp;#34; , sans-serif ; font-size: 16px&quot;&gt;&lt;font color=&quot;#050505&quot;&gt;&lt;span style=&quot;background-color: rgb(179 , 255 , 102)&quot;&gt;Pharmacy Admin&lt;br&gt;Pharmacy Name&lt;br&gt;Contact Person First Name&lt;br&gt;Contact Person Last Name&lt;br&gt;Contact Phone Number&lt;br&gt;Contact Email&lt;br&gt;Pharmacy Address&lt;br&gt;City/Town&lt;br&gt;State&lt;br&gt;Role Admin&lt;br&gt;&lt;br&gt;Maybe add a boolean for agreement&lt;/span&gt;&lt;br&gt;&lt;/font&gt;&lt;/span&gt;" style="rounded=0;whiteSpace=wrap;html=1;align=center;strokeColor=#000000;fillColor=#B3FF66;" parent="WIyWlLk6GJQsqaUBKTNV-1" vertex="1">
          <mxGeometry x="105" y="-180" width="210" height="260" as="geometry" />
        </mxCell>
        <mxCell id="Dos6IfHk-zw9CJUv5LPl-68" style="edgeStyle=orthogonalEdgeStyle;rounded=0;orthogonalLoop=1;jettySize=auto;html=1;exitX=0.5;exitY=1;exitDx=0;exitDy=0;" parent="WIyWlLk6GJQsqaUBKTNV-1" source="Dos6IfHk-zw9CJUv5LPl-67" target="Dos6IfHk-zw9CJUv5LPl-67" edge="1">
          <mxGeometry relative="1" as="geometry" />
        </mxCell>
        <mxCell id="Dos6IfHk-zw9CJUv5LPl-71" value="Later: &lt;br&gt;&lt;ul&gt;&lt;li&gt;Perhaps add a forum for easy communication between pharmacists, pharmacy.&lt;/li&gt;&lt;li&gt;Inventory for buying medication, drugs etc.&lt;/li&gt;&lt;/ul&gt;" style="text;html=1;align=left;verticalAlign=middle;resizable=0;points=[];autosize=1;strokeColor=none;fillColor=none;fontSize=16;fontColor=#050505;" parent="WIyWlLk6GJQsqaUBKTNV-1" vertex="1">
          <mxGeometry x="-379" y="305" width="611" height="93" as="geometry" />
        </mxCell>
        <mxCell id="8dSXoVbEQZDPzywqZXyl-1" value="" style="endArrow=classic;html=1;rounded=0;exitX=1;exitY=1;exitDx=0;exitDy=0;" parent="WIyWlLk6GJQsqaUBKTNV-1" source="Dos6IfHk-zw9CJUv5LPl-37" edge="1">
          <mxGeometry width="50" height="50" relative="1" as="geometry">
            <mxPoint x="1159" y="290" as="sourcePoint" />
            <mxPoint x="1209" y="240" as="targetPoint" />
          </mxGeometry>
        </mxCell>
        <mxCell id="8dSXoVbEQZDPzywqZXyl-2" value="Next step?&lt;br&gt;Prescription object with boolean that it has been delivered? " style="rounded=1;whiteSpace=wrap;html=1;" parent="WIyWlLk6GJQsqaUBKTNV-1" vertex="1">
          <mxGeometry x="1209" y="234" width="120" height="112" as="geometry" />
        </mxCell>
        <mxCell id="8dSXoVbEQZDPzywqZXyl-3" value="Integration with DoctorUI + PatientUI?" style="rounded=1;whiteSpace=wrap;html=1;" parent="WIyWlLk6GJQsqaUBKTNV-1" vertex="1">
          <mxGeometry x="1200" y="414" width="120" height="112" as="geometry" />
        </mxCell>
        <mxCell id="8dSXoVbEQZDPzywqZXyl-4" value="" style="endArrow=classic;html=1;rounded=0;" parent="WIyWlLk6GJQsqaUBKTNV-1" edge="1">
          <mxGeometry width="50" height="50" relative="1" as="geometry">
            <mxPoint x="1249" y="346" as="sourcePoint" />
            <mxPoint x="1249" y="417" as="targetPoint" />
          </mxGeometry>
        </mxCell>
        <mxCell id="GZrChby2d0Wq45yujZ4E-3" style="edgeStyle=orthogonalEdgeStyle;rounded=0;orthogonalLoop=1;jettySize=auto;html=1;exitX=0.5;exitY=1;exitDx=0;exitDy=0;entryX=0.075;entryY=-0.05;entryDx=0;entryDy=0;entryPerimeter=0;" parent="WIyWlLk6GJQsqaUBKTNV-1" source="GZrChby2d0Wq45yujZ4E-1" target="Dos6IfHk-zw9CJUv5LPl-37" edge="1">
          <mxGeometry relative="1" as="geometry" />
        </mxCell>
        <mxCell id="GZrChby2d0Wq45yujZ4E-1" value="Presciption data inc&lt;br&gt;doctorID(responseble ID)" style="rounded=1;whiteSpace=wrap;html=1;" parent="WIyWlLk6GJQsqaUBKTNV-1" vertex="1">
          <mxGeometry x="898" y="-55" width="142" height="60" as="geometry" />
        </mxCell>
        <mxCell id="MW6MiyiqKH1XR27VYQk7-0" value="Need approval from admin" style="text;html=1;align=center;verticalAlign=middle;resizable=0;points=[];autosize=1;strokeColor=none;fillColor=none;" parent="WIyWlLk6GJQsqaUBKTNV-1" vertex="1">
          <mxGeometry x="230" y="170" width="152" height="18" as="geometry" />
        </mxCell>
      </root>
    </mxGraphModel>
  </diagram>
  <diagram id="l2aBNVSbWUjspB9Aufxc" name="Candis">
    <mxGraphModel dx="1673" dy="926" grid="1" gridSize="10" guides="1" tooltips="1" connect="1" arrows="1" fold="1" page="1" pageScale="1" pageWidth="827" pageHeight="1169" math="0" shadow="0">
      <root>
        <mxCell id="0" />
        <mxCell id="1" parent="0" />
        <mxCell id="0R-6pB0854nwhh2sItV4-2" style="edgeStyle=orthogonalEdgeStyle;rounded=0;orthogonalLoop=1;jettySize=auto;html=1;exitX=0.25;exitY=1;exitDx=0;exitDy=0;" parent="1" source="0R-6pB0854nwhh2sItV4-6" target="0R-6pB0854nwhh2sItV4-10" edge="1">
          <mxGeometry relative="1" as="geometry" />
        </mxCell>
        <mxCell id="0R-6pB0854nwhh2sItV4-3" style="edgeStyle=orthogonalEdgeStyle;rounded=0;orthogonalLoop=1;jettySize=auto;html=1;exitX=1;exitY=0.5;exitDx=0;exitDy=0;" parent="1" source="0R-6pB0854nwhh2sItV4-6" edge="1">
          <mxGeometry relative="1" as="geometry">
            <mxPoint x="1080" y="605" as="targetPoint" />
          </mxGeometry>
        </mxCell>
        <mxCell id="0R-6pB0854nwhh2sItV4-4" style="edgeStyle=orthogonalEdgeStyle;rounded=0;orthogonalLoop=1;jettySize=auto;html=1;exitX=0;exitY=0.5;exitDx=0;exitDy=0;" parent="1" source="0R-6pB0854nwhh2sItV4-6" edge="1">
          <mxGeometry relative="1" as="geometry">
            <mxPoint x="860" y="605" as="targetPoint" />
          </mxGeometry>
        </mxCell>
        <mxCell id="0R-6pB0854nwhh2sItV4-5" style="edgeStyle=orthogonalEdgeStyle;rounded=0;orthogonalLoop=1;jettySize=auto;html=1;exitX=0.5;exitY=0;exitDx=0;exitDy=0;strokeColor=#050505;" parent="1" source="0R-6pB0854nwhh2sItV4-6" edge="1">
          <mxGeometry relative="1" as="geometry">
            <mxPoint x="970" y="550" as="targetPoint" />
          </mxGeometry>
        </mxCell>
        <mxCell id="0R-6pB0854nwhh2sItV4-6" value="Landingpage" style="rounded=1;whiteSpace=wrap;html=1;fontSize=12;glass=0;strokeWidth=1;shadow=0;" parent="1" vertex="1">
          <mxGeometry x="920" y="570" width="120" height="70" as="geometry" />
        </mxCell>
        <mxCell id="0R-6pB0854nwhh2sItV4-8" style="edgeStyle=orthogonalEdgeStyle;rounded=0;orthogonalLoop=1;jettySize=auto;html=1;exitX=1;exitY=0.5;exitDx=0;exitDy=0;" parent="1" source="0R-6pB0854nwhh2sItV4-10" edge="1">
          <mxGeometry relative="1" as="geometry">
            <mxPoint x="1060" y="765" as="targetPoint" />
          </mxGeometry>
        </mxCell>
        <mxCell id="0R-6pB0854nwhh2sItV4-9" style="edgeStyle=orthogonalEdgeStyle;rounded=0;orthogonalLoop=1;jettySize=auto;html=1;exitX=0.5;exitY=1;exitDx=0;exitDy=0;" parent="1" source="0R-6pB0854nwhh2sItV4-10" edge="1">
          <mxGeometry relative="1" as="geometry">
            <mxPoint x="950" y="820" as="targetPoint" />
          </mxGeometry>
        </mxCell>
        <mxCell id="4bItxZPnThiQxUw3Dwtl-11" style="edgeStyle=orthogonalEdgeStyle;rounded=0;orthogonalLoop=1;jettySize=auto;html=1;entryX=1;entryY=0.5;entryDx=0;entryDy=0;" parent="1" source="0R-6pB0854nwhh2sItV4-10" target="0R-6pB0854nwhh2sItV4-16" edge="1">
          <mxGeometry relative="1" as="geometry" />
        </mxCell>
        <mxCell id="0R-6pB0854nwhh2sItV4-10" value="Login/reg" style="rounded=1;whiteSpace=wrap;html=1;" parent="1" vertex="1">
          <mxGeometry x="910" y="750" width="80" height="30" as="geometry" />
        </mxCell>
        <mxCell id="0R-6pB0854nwhh2sItV4-11" value="Price information" style="rounded=1;whiteSpace=wrap;html=1;" parent="1" vertex="1">
          <mxGeometry x="1080" y="575" width="120" height="60" as="geometry" />
        </mxCell>
        <mxCell id="0R-6pB0854nwhh2sItV4-12" value="Aboutpage that inform the user of the website" style="rounded=1;whiteSpace=wrap;html=1;" parent="1" vertex="1">
          <mxGeometry x="740" y="575" width="120" height="60" as="geometry" />
        </mxCell>
        <mxCell id="0R-6pB0854nwhh2sItV4-13" style="edgeStyle=orthogonalEdgeStyle;rounded=0;orthogonalLoop=1;jettySize=auto;html=1;exitX=0.5;exitY=1;exitDx=0;exitDy=0;" parent="1" source="0R-6pB0854nwhh2sItV4-16" target="0R-6pB0854nwhh2sItV4-29" edge="1">
          <mxGeometry relative="1" as="geometry">
            <mxPoint x="520" y="820" as="targetPoint" />
          </mxGeometry>
        </mxCell>
        <mxCell id="0R-6pB0854nwhh2sItV4-16" value="Patient" style="rounded=1;whiteSpace=wrap;html=1;fillColor=#e1d5e7;strokeColor=#9673a6;" parent="1" vertex="1">
          <mxGeometry x="460" y="735" width="120" height="60" as="geometry" />
        </mxCell>
        <mxCell id="0R-6pB0854nwhh2sItV4-18" style="edgeStyle=orthogonalEdgeStyle;rounded=0;orthogonalLoop=1;jettySize=auto;html=1;exitX=0.75;exitY=1;exitDx=0;exitDy=0;entryX=0.5;entryY=0;entryDx=0;entryDy=0;" parent="1" source="0R-6pB0854nwhh2sItV4-20" target="0R-6pB0854nwhh2sItV4-32" edge="1">
          <mxGeometry relative="1" as="geometry" />
        </mxCell>
        <mxCell id="0R-6pB0854nwhh2sItV4-19" style="edgeStyle=orthogonalEdgeStyle;rounded=0;orthogonalLoop=1;jettySize=auto;html=1;exitX=0.25;exitY=1;exitDx=0;exitDy=0;entryX=1;entryY=0.5;entryDx=0;entryDy=0;strokeColor=#b85450;fillColor=#f8cecc;" parent="1" source="0R-6pB0854nwhh2sItV4-20" target="0R-6pB0854nwhh2sItV4-23" edge="1">
          <mxGeometry relative="1" as="geometry" />
        </mxCell>
        <mxCell id="Gv2sFkwimWeVR8vv9ag--13" value="" style="edgeStyle=orthogonalEdgeStyle;rounded=0;orthogonalLoop=1;jettySize=auto;html=1;" parent="1" source="0R-6pB0854nwhh2sItV4-20" target="Gv2sFkwimWeVR8vv9ag--12" edge="1">
          <mxGeometry relative="1" as="geometry" />
        </mxCell>
        <mxCell id="0R-6pB0854nwhh2sItV4-20" value="Dispensary" style="rounded=1;whiteSpace=wrap;html=1;fillColor=#fff2cc;strokeColor=#d6b656;" parent="1" vertex="1">
          <mxGeometry x="1060" y="735" width="120" height="60" as="geometry" />
        </mxCell>
        <mxCell id="4bItxZPnThiQxUw3Dwtl-5" style="edgeStyle=orthogonalEdgeStyle;rounded=0;orthogonalLoop=1;jettySize=auto;html=1;" parent="1" source="0R-6pB0854nwhh2sItV4-23" target="4bItxZPnThiQxUw3Dwtl-1" edge="1">
          <mxGeometry relative="1" as="geometry" />
        </mxCell>
        <mxCell id="0R-6pB0854nwhh2sItV4-23" value="Physician" style="rounded=1;whiteSpace=wrap;html=1;fillColor=#d5e8d4;strokeColor=#82b366;" parent="1" vertex="1">
          <mxGeometry x="890" y="820" width="120" height="60" as="geometry" />
        </mxCell>
        <mxCell id="0R-6pB0854nwhh2sItV4-24" style="edgeStyle=orthogonalEdgeStyle;rounded=0;orthogonalLoop=1;jettySize=auto;html=1;exitX=1;exitY=0.5;exitDx=0;exitDy=0;" parent="1" source="0R-6pB0854nwhh2sItV4-25" edge="1">
          <mxGeometry relative="1" as="geometry">
            <mxPoint x="1490" y="750" as="targetPoint" />
          </mxGeometry>
        </mxCell>
        <mxCell id="0R-6pB0854nwhh2sItV4-25" value="Scan qr" style="rounded=1;whiteSpace=wrap;html=1;fillColor=#fff2cc;strokeColor=#d6b656;" parent="1" vertex="1">
          <mxGeometry x="1380" y="730" width="80" height="40" as="geometry" />
        </mxCell>
        <mxCell id="0R-6pB0854nwhh2sItV4-26" style="edgeStyle=orthogonalEdgeStyle;rounded=0;orthogonalLoop=1;jettySize=auto;html=1;exitX=0;exitY=0.5;exitDx=0;exitDy=0;entryX=1;entryY=0.5;entryDx=0;entryDy=0;" parent="1" source="0R-6pB0854nwhh2sItV4-29" target="0R-6pB0854nwhh2sItV4-35" edge="1">
          <mxGeometry relative="1" as="geometry" />
        </mxCell>
        <mxCell id="0R-6pB0854nwhh2sItV4-27" style="edgeStyle=orthogonalEdgeStyle;rounded=0;orthogonalLoop=1;jettySize=auto;html=1;exitX=0.75;exitY=1;exitDx=0;exitDy=0;entryX=0.75;entryY=0;entryDx=0;entryDy=0;" parent="1" source="0R-6pB0854nwhh2sItV4-29" target="0R-6pB0854nwhh2sItV4-34" edge="1">
          <mxGeometry relative="1" as="geometry" />
        </mxCell>
        <mxCell id="0R-6pB0854nwhh2sItV4-28" style="edgeStyle=orthogonalEdgeStyle;rounded=0;orthogonalLoop=1;jettySize=auto;html=1;exitX=0;exitY=1;exitDx=0;exitDy=0;strokeColor=#050505;" parent="1" source="0R-6pB0854nwhh2sItV4-29" target="0R-6pB0854nwhh2sItV4-39" edge="1">
          <mxGeometry relative="1" as="geometry">
            <mxPoint x="390" y="980" as="targetPoint" />
          </mxGeometry>
        </mxCell>
        <mxCell id="Gv2sFkwimWeVR8vv9ag--5" value="" style="edgeStyle=orthogonalEdgeStyle;rounded=0;orthogonalLoop=1;jettySize=auto;html=1;" parent="1" source="0R-6pB0854nwhh2sItV4-29" target="0R-6pB0854nwhh2sItV4-34" edge="1">
          <mxGeometry relative="1" as="geometry" />
        </mxCell>
        <mxCell id="0R-6pB0854nwhh2sItV4-29" value="Consultation" style="rounded=1;whiteSpace=wrap;html=1;fillColor=#e1d5e7;strokeColor=#9673a6;gradientColor=#B3FF66;" parent="1" vertex="1">
          <mxGeometry x="460" y="880" width="120" height="60" as="geometry" />
        </mxCell>
        <mxCell id="0R-6pB0854nwhh2sItV4-30" style="edgeStyle=orthogonalEdgeStyle;rounded=0;orthogonalLoop=1;jettySize=auto;html=1;exitX=0.5;exitY=1;exitDx=0;exitDy=0;strokeColor=#050505;" parent="1" source="0R-6pB0854nwhh2sItV4-31" edge="1">
          <mxGeometry relative="1" as="geometry">
            <mxPoint x="1530" y="835" as="targetPoint" />
          </mxGeometry>
        </mxCell>
        <mxCell id="0R-6pB0854nwhh2sItV4-31" value="Read prescription" style="rounded=1;whiteSpace=wrap;html=1;fillColor=#fff2cc;strokeColor=#d6b656;" parent="1" vertex="1">
          <mxGeometry x="1490" y="730" width="80" height="40" as="geometry" />
        </mxCell>
        <mxCell id="0R-6pB0854nwhh2sItV4-32" value="Invite/referal patient" style="rounded=1;whiteSpace=wrap;html=1;fillColor=#fff2cc;strokeColor=#d6b656;" parent="1" vertex="1">
          <mxGeometry x="1100" y="897.5" width="100" height="30" as="geometry" />
        </mxCell>
        <mxCell id="0R-6pB0854nwhh2sItV4-33" style="edgeStyle=orthogonalEdgeStyle;rounded=0;orthogonalLoop=1;jettySize=auto;html=1;exitX=1;exitY=0.75;exitDx=0;exitDy=0;entryX=0.5;entryY=1;entryDx=0;entryDy=0;strokeColor=#050505;" parent="1" source="0R-6pB0854nwhh2sItV4-34" target="0R-6pB0854nwhh2sItV4-42" edge="1">
          <mxGeometry relative="1" as="geometry" />
        </mxCell>
        <mxCell id="0R-6pB0854nwhh2sItV4-34" value="Write recommendation&lt;br&gt;of strain" style="rounded=1;whiteSpace=wrap;html=1;fillColor=#d5e8d4;strokeColor=#82b366;" parent="1" vertex="1">
          <mxGeometry x="460" y="970" width="120" height="60" as="geometry" />
        </mxCell>
        <mxCell id="0R-6pB0854nwhh2sItV4-35" value="Extend license" style="rounded=1;whiteSpace=wrap;html=1;fillColor=#d5e8d4;strokeColor=#82b366;" parent="1" vertex="1">
          <mxGeometry x="360" y="895" width="80" height="30" as="geometry" />
        </mxCell>
        <mxCell id="0R-6pB0854nwhh2sItV4-36" style="edgeStyle=orthogonalEdgeStyle;rounded=0;orthogonalLoop=1;jettySize=auto;html=1;exitX=0.5;exitY=1;exitDx=0;exitDy=0;entryX=0.5;entryY=0;entryDx=0;entryDy=0;" parent="1" source="0R-6pB0854nwhh2sItV4-37" target="0R-6pB0854nwhh2sItV4-16" edge="1">
          <mxGeometry relative="1" as="geometry">
            <mxPoint x="520" y="730" as="targetPoint" />
          </mxGeometry>
        </mxCell>
        <mxCell id="Gv2sFkwimWeVR8vv9ag--2" value="" style="edgeStyle=orthogonalEdgeStyle;rounded=0;orthogonalLoop=1;jettySize=auto;html=1;" parent="1" source="0R-6pB0854nwhh2sItV4-37" target="Gv2sFkwimWeVR8vv9ag--1" edge="1">
          <mxGeometry relative="1" as="geometry" />
        </mxCell>
        <mxCell id="4bItxZPnThiQxUw3Dwtl-12" value="" style="edgeStyle=orthogonalEdgeStyle;rounded=0;orthogonalLoop=1;jettySize=auto;html=1;" parent="1" source="0R-6pB0854nwhh2sItV4-37" target="0R-6pB0854nwhh2sItV4-38" edge="1">
          <mxGeometry relative="1" as="geometry" />
        </mxCell>
        <mxCell id="4bItxZPnThiQxUw3Dwtl-13" value="" style="edgeStyle=orthogonalEdgeStyle;rounded=0;orthogonalLoop=1;jettySize=auto;html=1;" parent="1" source="0R-6pB0854nwhh2sItV4-37" target="0R-6pB0854nwhh2sItV4-45" edge="1">
          <mxGeometry relative="1" as="geometry" />
        </mxCell>
        <mxCell id="0R-6pB0854nwhh2sItV4-37" value="License check" style="rounded=1;whiteSpace=wrap;html=1;fillColor=#e1d5e7;strokeColor=#9673a6;" parent="1" vertex="1">
          <mxGeometry x="475" y="691.25" width="90" height="27.5" as="geometry" />
        </mxCell>
        <mxCell id="3Ls0iHynn60MYyCrIyM9-2" value="" style="edgeStyle=orthogonalEdgeStyle;rounded=0;orthogonalLoop=1;jettySize=auto;html=1;" edge="1" parent="1" source="0R-6pB0854nwhh2sItV4-38" target="3Ls0iHynn60MYyCrIyM9-1">
          <mxGeometry relative="1" as="geometry" />
        </mxCell>
        <mxCell id="0R-6pB0854nwhh2sItV4-38" value="History" style="rounded=1;whiteSpace=wrap;html=1;fillColor=#e1d5e7;strokeColor=#9673a6;" parent="1" vertex="1">
          <mxGeometry x="610" y="687.5" width="50" height="35" as="geometry" />
        </mxCell>
        <mxCell id="0R-6pB0854nwhh2sItV4-39" value="Feedback" style="rounded=1;whiteSpace=wrap;html=1;fillColor=#e1d5e7;strokeColor=#9673a6;" parent="1" vertex="1">
          <mxGeometry x="330" y="980" width="90" height="30" as="geometry" />
        </mxCell>
        <mxCell id="0R-6pB0854nwhh2sItV4-40" value="Support" style="rounded=1;whiteSpace=wrap;html=1;" parent="1" vertex="1">
          <mxGeometry x="910" y="490" width="120" height="60" as="geometry" />
        </mxCell>
        <mxCell id="0R-6pB0854nwhh2sItV4-41" style="edgeStyle=orthogonalEdgeStyle;rounded=0;orthogonalLoop=1;jettySize=auto;html=1;exitX=0;exitY=0.5;exitDx=0;exitDy=0;strokeColor=#050505;" parent="1" source="0R-6pB0854nwhh2sItV4-42" edge="1">
          <mxGeometry relative="1" as="geometry">
            <mxPoint x="1460" y="865" as="targetPoint" />
          </mxGeometry>
        </mxCell>
        <mxCell id="0R-6pB0854nwhh2sItV4-42" value="Hand out the medication" style="rounded=1;whiteSpace=wrap;html=1;gradientColor=#FFD966;fillColor=#A680B8;" parent="1" vertex="1">
          <mxGeometry x="1495" y="835" width="75" height="60" as="geometry" />
        </mxCell>
        <mxCell id="0R-6pB0854nwhh2sItV4-43" value="Data with &lt;br&gt;all dispensorys" style="text;html=1;align=center;verticalAlign=middle;resizable=0;points=[];autosize=1;fillColor=none;strokeColor=none;" parent="1" vertex="1">
          <mxGeometry x="1010" y="815" width="90" height="30" as="geometry" />
        </mxCell>
        <mxCell id="0R-6pB0854nwhh2sItV4-44" value="Send email to user" style="rounded=1;whiteSpace=wrap;html=1;fillColor=#e1d5e7;strokeColor=#9673a6;gradientColor=#FFE599;" parent="1" vertex="1">
          <mxGeometry x="1400" y="840" width="60" height="50" as="geometry" />
        </mxCell>
        <mxCell id="0R-6pB0854nwhh2sItV4-45" value="Inbox" style="rounded=1;whiteSpace=wrap;html=1;fillColor=#e1d5e7;strokeColor=#9673a6;" parent="1" vertex="1">
          <mxGeometry x="360" y="691.25" width="70" height="28.75" as="geometry" />
        </mxCell>
        <mxCell id="Gv2sFkwimWeVR8vv9ag--1" value="Sign Policy" style="rounded=1;whiteSpace=wrap;html=1;fillColor=#e1d5e7;strokeColor=#9673a6;" parent="1" vertex="1">
          <mxGeometry x="475" y="630" width="90" height="27.5" as="geometry" />
        </mxCell>
        <mxCell id="4bItxZPnThiQxUw3Dwtl-7" value="" style="edgeStyle=orthogonalEdgeStyle;rounded=0;orthogonalLoop=1;jettySize=auto;html=1;" parent="1" source="Gv2sFkwimWeVR8vv9ag--7" target="0R-6pB0854nwhh2sItV4-29" edge="1">
          <mxGeometry relative="1" as="geometry" />
        </mxCell>
        <mxCell id="Gv2sFkwimWeVR8vv9ag--7" value="Sign Policy" style="rounded=1;whiteSpace=wrap;html=1;fillColor=#d5e8d4;strokeColor=#82b366;" parent="1" vertex="1">
          <mxGeometry x="640" y="897.5" width="70" height="25" as="geometry" />
        </mxCell>
        <mxCell id="4bItxZPnThiQxUw3Dwtl-9" value="" style="edgeStyle=orthogonalEdgeStyle;rounded=0;orthogonalLoop=1;jettySize=auto;html=1;" parent="1" source="Gv2sFkwimWeVR8vv9ag--12" target="4bItxZPnThiQxUw3Dwtl-8" edge="1">
          <mxGeometry relative="1" as="geometry" />
        </mxCell>
        <mxCell id="Gv2sFkwimWeVR8vv9ag--12" value="License check" style="whiteSpace=wrap;html=1;fillColor=#fff2cc;strokeColor=#d6b656;rounded=1;" parent="1" vertex="1">
          <mxGeometry x="1260" y="752.5" width="90" height="25" as="geometry" />
        </mxCell>
        <mxCell id="4bItxZPnThiQxUw3Dwtl-6" value="" style="edgeStyle=orthogonalEdgeStyle;rounded=0;orthogonalLoop=1;jettySize=auto;html=1;" parent="1" source="4bItxZPnThiQxUw3Dwtl-1" target="Gv2sFkwimWeVR8vv9ag--7" edge="1">
          <mxGeometry relative="1" as="geometry" />
        </mxCell>
        <mxCell id="4bItxZPnThiQxUw3Dwtl-1" value="License check" style="rounded=1;whiteSpace=wrap;html=1;fillColor=#d5e8d4;strokeColor=#82b366;" parent="1" vertex="1">
          <mxGeometry x="755" y="896.25" width="90" height="27.5" as="geometry" />
        </mxCell>
        <mxCell id="4bItxZPnThiQxUw3Dwtl-8" value="Sign Policy" style="rounded=1;whiteSpace=wrap;html=1;fillColor=#d5e8d4;strokeColor=#82b366;" parent="1" vertex="1">
          <mxGeometry x="1260" y="810" width="90" height="27.5" as="geometry" />
        </mxCell>
        <mxCell id="3Ls0iHynn60MYyCrIyM9-1" value="to email" style="rounded=1;whiteSpace=wrap;html=1;fillColor=#e1d5e7;strokeColor=#9673a6;" vertex="1" parent="1">
          <mxGeometry x="610" y="572.5" width="50" height="35" as="geometry" />
        </mxCell>
      </root>
    </mxGraphModel>
  </diagram>
  <diagram id="vKPiT_rPFep5uZwiNss-" name="Business Administration">
    <mxGraphModel dx="1865" dy="555" grid="1" gridSize="10" guides="1" tooltips="1" connect="1" arrows="1" fold="1" page="1" pageScale="1" pageWidth="827" pageHeight="1169" math="0" shadow="0">
      <root>
        <mxCell id="0" />
        <mxCell id="1" parent="0" />
        <mxCell id="pVIZvdUSwjJF4OBtwnmT-5" style="edgeStyle=orthogonalEdgeStyle;rounded=0;orthogonalLoop=1;jettySize=auto;html=1;exitX=0.75;exitY=1;exitDx=0;exitDy=0;" parent="1" source="pVIZvdUSwjJF4OBtwnmT-4" edge="1">
          <mxGeometry relative="1" as="geometry">
            <mxPoint x="58" y="765" as="targetPoint" />
          </mxGeometry>
        </mxCell>
        <mxCell id="pVIZvdUSwjJF4OBtwnmT-6" style="edgeStyle=orthogonalEdgeStyle;rounded=0;orthogonalLoop=1;jettySize=auto;html=1;exitX=0.25;exitY=1;exitDx=0;exitDy=0;" parent="1" source="pVIZvdUSwjJF4OBtwnmT-4" edge="1">
          <mxGeometry relative="1" as="geometry">
            <mxPoint x="-7" y="765" as="targetPoint" />
          </mxGeometry>
        </mxCell>
        <mxCell id="pVIZvdUSwjJF4OBtwnmT-69" style="edgeStyle=orthogonalEdgeStyle;rounded=0;orthogonalLoop=1;jettySize=auto;html=1;exitX=1;exitY=0.5;exitDx=0;exitDy=0;entryX=0;entryY=0.5;entryDx=0;entryDy=0;" parent="1" source="pVIZvdUSwjJF4OBtwnmT-4" target="pVIZvdUSwjJF4OBtwnmT-11" edge="1">
          <mxGeometry relative="1" as="geometry" />
        </mxCell>
        <mxCell id="pVIZvdUSwjJF4OBtwnmT-4" value="Get all new registrated doctors inc survy result, pharmcy, lab, hospital" style="rounded=1;whiteSpace=wrap;html=1;fillColor=#dae8fc;strokeColor=#6c8ebf;" parent="1" vertex="1">
          <mxGeometry x="-40" y="645" width="130" height="60" as="geometry" />
        </mxCell>
        <mxCell id="YnH9eUi_ajxCD4aGLkVd-11" value="" style="edgeStyle=orthogonalEdgeStyle;rounded=0;orthogonalLoop=1;jettySize=auto;html=1;" parent="1" source="pVIZvdUSwjJF4OBtwnmT-7" target="YnH9eUi_ajxCD4aGLkVd-10" edge="1">
          <mxGeometry relative="1" as="geometry" />
        </mxCell>
        <mxCell id="pVIZvdUSwjJF4OBtwnmT-7" value="Accept" style="rounded=1;whiteSpace=wrap;html=1;fillColor=#dae8fc;strokeColor=#6c8ebf;" parent="1" vertex="1">
          <mxGeometry x="30" y="765" width="60" height="20" as="geometry" />
        </mxCell>
        <mxCell id="YnH9eUi_ajxCD4aGLkVd-14" value="" style="edgeStyle=orthogonalEdgeStyle;rounded=0;orthogonalLoop=1;jettySize=auto;html=1;" parent="1" source="pVIZvdUSwjJF4OBtwnmT-8" target="YnH9eUi_ajxCD4aGLkVd-13" edge="1">
          <mxGeometry relative="1" as="geometry" />
        </mxCell>
        <mxCell id="pVIZvdUSwjJF4OBtwnmT-8" value="Decline" style="rounded=1;whiteSpace=wrap;html=1;fillColor=#dae8fc;strokeColor=#6c8ebf;" parent="1" vertex="1">
          <mxGeometry x="-40" y="765" width="60" height="20" as="geometry" />
        </mxCell>
        <mxCell id="pVIZvdUSwjJF4OBtwnmT-65" style="edgeStyle=orthogonalEdgeStyle;rounded=0;orthogonalLoop=1;jettySize=auto;html=1;exitX=1;exitY=0.5;exitDx=0;exitDy=0;entryX=0;entryY=0.5;entryDx=0;entryDy=0;" parent="1" source="pVIZvdUSwjJF4OBtwnmT-11" target="pVIZvdUSwjJF4OBtwnmT-64" edge="1">
          <mxGeometry relative="1" as="geometry" />
        </mxCell>
        <mxCell id="pVIZvdUSwjJF4OBtwnmT-11" value="More information is needed" style="rounded=1;whiteSpace=wrap;html=1;fillColor=#dae8fc;strokeColor=#6c8ebf;" parent="1" vertex="1">
          <mxGeometry x="120" y="655" width="110" height="40" as="geometry" />
        </mxCell>
        <mxCell id="pVIZvdUSwjJF4OBtwnmT-49" value="Carelyo.in" style="rounded=1;whiteSpace=wrap;html=1;fillColor=#ffe6cc;strokeColor=#d79b00;" parent="1" vertex="1">
          <mxGeometry x="260" y="350" width="120" height="20" as="geometry" />
        </mxCell>
        <mxCell id="pVIZvdUSwjJF4OBtwnmT-52" value="API DATA" style="rounded=1;whiteSpace=wrap;html=1;fillColor=#f8cecc;strokeColor=#b85450;" parent="1" vertex="1">
          <mxGeometry x="260" y="380" width="120" height="20" as="geometry" />
        </mxCell>
        <mxCell id="pVIZvdUSwjJF4OBtwnmT-67" style="edgeStyle=orthogonalEdgeStyle;rounded=0;orthogonalLoop=1;jettySize=auto;html=1;exitX=0.5;exitY=1;exitDx=0;exitDy=0;entryX=0.5;entryY=0;entryDx=0;entryDy=0;" parent="1" source="pVIZvdUSwjJF4OBtwnmT-64" target="pVIZvdUSwjJF4OBtwnmT-66" edge="1">
          <mxGeometry relative="1" as="geometry" />
        </mxCell>
        <mxCell id="pVIZvdUSwjJF4OBtwnmT-64" value="Refrense/Controll" style="rounded=1;whiteSpace=wrap;html=1;fillColor=#dae8fc;strokeColor=#6c8ebf;" parent="1" vertex="1">
          <mxGeometry x="270" y="660" width="110" height="30" as="geometry" />
        </mxCell>
        <mxCell id="pVIZvdUSwjJF4OBtwnmT-68" style="edgeStyle=orthogonalEdgeStyle;rounded=0;orthogonalLoop=1;jettySize=auto;html=1;exitX=0;exitY=0.5;exitDx=0;exitDy=0;entryX=0.872;entryY=1.003;entryDx=0;entryDy=0;entryPerimeter=0;" parent="1" source="pVIZvdUSwjJF4OBtwnmT-66" target="pVIZvdUSwjJF4OBtwnmT-4" edge="1">
          <mxGeometry relative="1" as="geometry" />
        </mxCell>
        <mxCell id="pVIZvdUSwjJF4OBtwnmT-66" value="Refrense survy or controll" style="rounded=1;whiteSpace=wrap;html=1;" parent="1" vertex="1">
          <mxGeometry x="270" y="715" width="120" height="30" as="geometry" />
        </mxCell>
        <mxCell id="pVIZvdUSwjJF4OBtwnmT-78" style="edgeStyle=orthogonalEdgeStyle;rounded=0;orthogonalLoop=1;jettySize=auto;html=1;exitX=0.5;exitY=1;exitDx=0;exitDy=0;entryX=0.415;entryY=0.007;entryDx=0;entryDy=0;entryPerimeter=0;" parent="1" target="pVIZvdUSwjJF4OBtwnmT-4" edge="1">
          <mxGeometry relative="1" as="geometry">
            <mxPoint x="15" y="610" as="sourcePoint" />
          </mxGeometry>
        </mxCell>
        <mxCell id="pVIZvdUSwjJF4OBtwnmT-79" style="edgeStyle=orthogonalEdgeStyle;rounded=0;orthogonalLoop=1;jettySize=auto;html=1;exitX=1;exitY=0.5;exitDx=0;exitDy=0;" parent="1" edge="1">
          <mxGeometry relative="1" as="geometry">
            <mxPoint x="135" y="580" as="targetPoint" />
            <mxPoint x="100" y="580" as="sourcePoint" />
          </mxGeometry>
        </mxCell>
        <mxCell id="s_3DEmQnIQatAhMAdXMA-2" style="edgeStyle=orthogonalEdgeStyle;rounded=0;orthogonalLoop=1;jettySize=auto;html=1;exitX=0;exitY=0.25;exitDx=0;exitDy=0;entryX=1;entryY=0.5;entryDx=0;entryDy=0;" parent="1" source="pVIZvdUSwjJF4OBtwnmT-81" target="XBkoawqpiFfqGLOoL1qc-4" edge="1">
          <mxGeometry relative="1" as="geometry" />
        </mxCell>
        <mxCell id="s_3DEmQnIQatAhMAdXMA-3" style="edgeStyle=orthogonalEdgeStyle;rounded=0;orthogonalLoop=1;jettySize=auto;html=1;exitX=0;exitY=0.5;exitDx=0;exitDy=0;entryX=1;entryY=0.5;entryDx=0;entryDy=0;" parent="1" source="pVIZvdUSwjJF4OBtwnmT-81" target="s_3DEmQnIQatAhMAdXMA-1" edge="1">
          <mxGeometry relative="1" as="geometry" />
        </mxCell>
        <mxCell id="Ef-oMee0xc38bH92ieOR-1" style="edgeStyle=orthogonalEdgeStyle;rounded=0;orthogonalLoop=1;jettySize=auto;html=1;exitX=0.5;exitY=0;exitDx=0;exitDy=0;" edge="1" parent="1" source="pVIZvdUSwjJF4OBtwnmT-81">
          <mxGeometry relative="1" as="geometry">
            <mxPoint x="110" y="360" as="targetPoint" />
          </mxGeometry>
        </mxCell>
        <mxCell id="pVIZvdUSwjJF4OBtwnmT-81" value="Business/Marketing&amp;nbsp;operation admin" style="rounded=1;whiteSpace=wrap;html=1;fillColor=#dae8fc;strokeColor=#6c8ebf;gradientColor=#99FF99;" parent="1" vertex="1">
          <mxGeometry x="-70" y="550" width="170" height="60" as="geometry" />
        </mxCell>
        <mxCell id="pVIZvdUSwjJF4OBtwnmT-82" value="Business and contacts" style="rounded=1;whiteSpace=wrap;html=1;fillColor=#dae8fc;strokeColor=#6c8ebf;" parent="1" vertex="1">
          <mxGeometry x="140" y="560" width="130" height="40" as="geometry" />
        </mxCell>
        <mxCell id="pVIZvdUSwjJF4OBtwnmT-84" value="" style="edgeStyle=orthogonalEdgeStyle;rounded=0;orthogonalLoop=1;jettySize=auto;html=1;" parent="1" source="pVIZvdUSwjJF4OBtwnmT-83" target="pVIZvdUSwjJF4OBtwnmT-82" edge="1">
          <mxGeometry relative="1" as="geometry" />
        </mxCell>
        <mxCell id="pVIZvdUSwjJF4OBtwnmT-83" value="Carelyo homepage" style="rounded=1;whiteSpace=wrap;html=1;fillColor=#ffe6cc;strokeColor=#d79b00;" parent="1" vertex="1">
          <mxGeometry x="322" y="550" width="120" height="60" as="geometry" />
        </mxCell>
        <mxCell id="s_3DEmQnIQatAhMAdXMA-4" style="edgeStyle=orthogonalEdgeStyle;rounded=0;orthogonalLoop=1;jettySize=auto;html=1;exitX=0.5;exitY=1;exitDx=0;exitDy=0;entryX=0.121;entryY=-0.063;entryDx=0;entryDy=0;entryPerimeter=0;" parent="1" source="pVIZvdUSwjJF4OBtwnmT-85" target="pVIZvdUSwjJF4OBtwnmT-81" edge="1">
          <mxGeometry relative="1" as="geometry" />
        </mxCell>
        <mxCell id="pVIZvdUSwjJF4OBtwnmT-85" value="API DATA&lt;br&gt;&amp;nbsp;All users except sysAdmin&lt;br&gt;billing data" style="rounded=1;whiteSpace=wrap;html=1;fillColor=#f8cecc;strokeColor=#b85450;" parent="1" vertex="1">
          <mxGeometry x="-130" y="390" width="162.5" height="80" as="geometry" />
        </mxCell>
        <mxCell id="pVIZvdUSwjJF4OBtwnmT-87" value="Business operations" style="rounded=1;whiteSpace=wrap;html=1;fillColor=#dae8fc;strokeColor=#6c8ebf;" parent="1" vertex="1">
          <mxGeometry x="260" y="320" width="120" height="20" as="geometry" />
        </mxCell>
        <mxCell id="XBkoawqpiFfqGLOoL1qc-1" style="edgeStyle=orthogonalEdgeStyle;rounded=0;orthogonalLoop=1;jettySize=auto;html=1;exitX=0;exitY=0.5;exitDx=0;exitDy=0;" parent="1" source="XBkoawqpiFfqGLOoL1qc-4" edge="1">
          <mxGeometry relative="1" as="geometry">
            <mxPoint x="-330" y="520" as="targetPoint" />
          </mxGeometry>
        </mxCell>
        <mxCell id="XBkoawqpiFfqGLOoL1qc-2" value="" style="edgeStyle=orthogonalEdgeStyle;rounded=0;orthogonalLoop=1;jettySize=auto;html=1;" parent="1" source="XBkoawqpiFfqGLOoL1qc-4" target="XBkoawqpiFfqGLOoL1qc-6" edge="1">
          <mxGeometry relative="1" as="geometry" />
        </mxCell>
        <mxCell id="XBkoawqpiFfqGLOoL1qc-3" style="edgeStyle=orthogonalEdgeStyle;rounded=0;orthogonalLoop=1;jettySize=auto;html=1;exitX=0.5;exitY=1;exitDx=0;exitDy=0;entryX=0.5;entryY=0;entryDx=0;entryDy=0;" parent="1" source="XBkoawqpiFfqGLOoL1qc-4" target="XBkoawqpiFfqGLOoL1qc-7" edge="1">
          <mxGeometry relative="1" as="geometry" />
        </mxCell>
        <mxCell id="XBkoawqpiFfqGLOoL1qc-4" value="Create newsPosts" style="rounded=1;whiteSpace=wrap;html=1;fillColor=#d5e8d4;strokeColor=#82b366;" parent="1" vertex="1">
          <mxGeometry x="-270" y="490" width="120" height="60" as="geometry" />
        </mxCell>
        <mxCell id="XBkoawqpiFfqGLOoL1qc-5" value="Landingpage for carelyo" style="rounded=1;whiteSpace=wrap;html=1;fillColor=#ffe6cc;strokeColor=#d79b00;" parent="1" vertex="1">
          <mxGeometry x="-450" y="490" width="120" height="60" as="geometry" />
        </mxCell>
        <mxCell id="XBkoawqpiFfqGLOoL1qc-6" value="Update news" style="whiteSpace=wrap;html=1;fillColor=#d5e8d4;strokeColor=#82b366;rounded=1;" parent="1" vertex="1">
          <mxGeometry x="-270" y="450" width="120" height="20" as="geometry" />
        </mxCell>
        <mxCell id="XBkoawqpiFfqGLOoL1qc-7" value="Delete news" style="whiteSpace=wrap;html=1;fillColor=#d5e8d4;strokeColor=#82b366;rounded=1;" parent="1" vertex="1">
          <mxGeometry x="-270" y="570" width="120" height="20" as="geometry" />
        </mxCell>
        <mxCell id="Q2wXlf_DmwEucHHkGt0K-2" value="Content creator" style="whiteSpace=wrap;html=1;fillColor=#d5e8d4;strokeColor=#82b366;rounded=1;" parent="1" vertex="1">
          <mxGeometry x="260" y="290" width="120" height="20" as="geometry" />
        </mxCell>
        <mxCell id="Q2wXlf_DmwEucHHkGt0K-3" value="Users should have diffrent access to the diffrent parts of the app" style="text;html=1;align=center;verticalAlign=middle;resizable=0;points=[];autosize=1;strokeColor=none;fillColor=none;" parent="1" vertex="1">
          <mxGeometry x="160" y="460" width="360" height="20" as="geometry" />
        </mxCell>
        <mxCell id="s_3DEmQnIQatAhMAdXMA-1" value="System admin" style="rounded=1;whiteSpace=wrap;html=1;fillColor=#e1d5e7;strokeColor=#9673a6;" parent="1" vertex="1">
          <mxGeometry x="-240" y="610" width="120" height="60" as="geometry" />
        </mxCell>
        <mxCell id="s_3DEmQnIQatAhMAdXMA-6" style="edgeStyle=orthogonalEdgeStyle;rounded=0;orthogonalLoop=1;jettySize=auto;html=1;exitX=0.5;exitY=1;exitDx=0;exitDy=0;entryX=0.75;entryY=0;entryDx=0;entryDy=0;" parent="1" source="s_3DEmQnIQatAhMAdXMA-5" target="pVIZvdUSwjJF4OBtwnmT-81" edge="1">
          <mxGeometry relative="1" as="geometry" />
        </mxCell>
        <mxCell id="s_3DEmQnIQatAhMAdXMA-5" value="Login portal" style="rounded=1;whiteSpace=wrap;html=1;" parent="1" vertex="1">
          <mxGeometry x="10" y="490" width="120" height="30" as="geometry" />
        </mxCell>
        <mxCell id="YnH9eUi_ajxCD4aGLkVd-5" value="" style="edgeStyle=orthogonalEdgeStyle;rounded=0;orthogonalLoop=1;jettySize=auto;html=1;" parent="1" source="YnH9eUi_ajxCD4aGLkVd-1" target="YnH9eUi_ajxCD4aGLkVd-4" edge="1">
          <mxGeometry relative="1" as="geometry" />
        </mxCell>
        <mxCell id="YnH9eUi_ajxCD4aGLkVd-1" value="Registration&lt;br&gt;doctor, pharmacy, hospital, lab" style="whiteSpace=wrap;html=1;fillColor=#dae8fc;strokeColor=#6c8ebf;rounded=1;" parent="1" vertex="1">
          <mxGeometry x="-300" y="940" width="120" height="60" as="geometry" />
        </mxCell>
        <mxCell id="YnH9eUi_ajxCD4aGLkVd-9" style="edgeStyle=orthogonalEdgeStyle;rounded=0;orthogonalLoop=1;jettySize=auto;html=1;entryX=0;entryY=0.5;entryDx=0;entryDy=0;" parent="1" source="YnH9eUi_ajxCD4aGLkVd-4" target="pVIZvdUSwjJF4OBtwnmT-4" edge="1">
          <mxGeometry relative="1" as="geometry" />
        </mxCell>
        <mxCell id="YnH9eUi_ajxCD4aGLkVd-4" value="Gitlab Issue" style="ellipse;whiteSpace=wrap;html=1;fillColor=#dae8fc;strokeColor=#6c8ebf;rounded=1;" parent="1" vertex="1">
          <mxGeometry x="-300" y="820" width="120" height="60" as="geometry" />
        </mxCell>
        <mxCell id="YnH9eUi_ajxCD4aGLkVd-10" value="Approved Api" style="whiteSpace=wrap;html=1;fillColor=#dae8fc;strokeColor=#6c8ebf;rounded=1;" parent="1" vertex="1">
          <mxGeometry x="220" y="860" width="120" height="60" as="geometry" />
        </mxCell>
        <mxCell id="YnH9eUi_ajxCD4aGLkVd-13" value="Email User" style="whiteSpace=wrap;html=1;fillColor=#dae8fc;strokeColor=#6c8ebf;rounded=1;" parent="1" vertex="1">
          <mxGeometry x="-70" y="880" width="120" height="60" as="geometry" />
        </mxCell>
        <mxCell id="Ef-oMee0xc38bH92ieOR-2" value="Support" style="rounded=1;whiteSpace=wrap;html=1;gradientColor=none;" vertex="1" parent="1">
          <mxGeometry x="50" y="300" width="120" height="60" as="geometry" />
        </mxCell>
      </root>
    </mxGraphModel>
  </diagram>
  <diagram id="DUkl8JVpFBJy8IEtgwDp" name="System Admin">
    <mxGraphModel dx="1221" dy="706" grid="1" gridSize="10" guides="1" tooltips="1" connect="1" arrows="1" fold="1" page="1" pageScale="1" pageWidth="827" pageHeight="1169" math="0" shadow="0">
      <root>
        <mxCell id="0" />
        <mxCell id="1" parent="0" />
        <mxCell id="9XNof_qz7bPZeMCd8-94-2" style="edgeStyle=orthogonalEdgeStyle;rounded=0;orthogonalLoop=1;jettySize=auto;html=1;exitX=1;exitY=0.75;exitDx=0;exitDy=0;" parent="1" source="9XNof_qz7bPZeMCd8-94-3" edge="1">
          <mxGeometry relative="1" as="geometry">
            <mxPoint x="550" y="315" as="targetPoint" />
          </mxGeometry>
        </mxCell>
        <mxCell id="3a9s9x0ZKAbHcCU9vH8V-2" style="edgeStyle=orthogonalEdgeStyle;rounded=0;orthogonalLoop=1;jettySize=auto;html=1;exitX=0;exitY=0.5;exitDx=0;exitDy=0;entryX=1;entryY=0.5;entryDx=0;entryDy=0;" parent="1" source="9XNof_qz7bPZeMCd8-94-3" target="3a9s9x0ZKAbHcCU9vH8V-1" edge="1">
          <mxGeometry relative="1" as="geometry" />
        </mxCell>
        <mxCell id="9XNof_qz7bPZeMCd8-94-3" value="System admin" style="rounded=1;whiteSpace=wrap;html=1;fillColor=#e1d5e7;strokeColor=#9673a6;" parent="1" vertex="1">
          <mxGeometry x="380" y="270" width="120" height="60" as="geometry" />
        </mxCell>
        <mxCell id="9XNof_qz7bPZeMCd8-94-4" style="edgeStyle=orthogonalEdgeStyle;rounded=0;orthogonalLoop=1;jettySize=auto;html=1;exitX=0;exitY=0.25;exitDx=0;exitDy=0;entryX=1.012;entryY=0.377;entryDx=0;entryDy=0;entryPerimeter=0;" parent="1" source="9XNof_qz7bPZeMCd8-94-5" target="9XNof_qz7bPZeMCd8-94-3" edge="1">
          <mxGeometry relative="1" as="geometry" />
        </mxCell>
        <mxCell id="9XNof_qz7bPZeMCd8-94-5" value="Second line support" style="rounded=1;whiteSpace=wrap;html=1;fillColor=#e1d5e7;strokeColor=#9673a6;" parent="1" vertex="1">
          <mxGeometry x="550" y="280" width="120" height="50" as="geometry" />
        </mxCell>
        <mxCell id="9XNof_qz7bPZeMCd8-94-6" style="edgeStyle=orthogonalEdgeStyle;rounded=0;orthogonalLoop=1;jettySize=auto;html=1;exitX=0.5;exitY=1;exitDx=0;exitDy=0;entryX=0.25;entryY=0;entryDx=0;entryDy=0;" parent="1" source="9XNof_qz7bPZeMCd8-94-7" target="9XNof_qz7bPZeMCd8-94-3" edge="1">
          <mxGeometry relative="1" as="geometry" />
        </mxCell>
        <mxCell id="9XNof_qz7bPZeMCd8-94-7" value="API DATA&lt;br&gt;Consultations, Feedback, Matrix, all users,&amp;nbsp;" style="rounded=1;whiteSpace=wrap;html=1;fillColor=#f8cecc;strokeColor=#b85450;" parent="1" vertex="1">
          <mxGeometry x="291" y="100" width="162.5" height="90" as="geometry" />
        </mxCell>
        <mxCell id="9XNof_qz7bPZeMCd8-94-8" style="edgeStyle=orthogonalEdgeStyle;rounded=0;orthogonalLoop=1;jettySize=auto;html=1;exitX=0;exitY=0.5;exitDx=0;exitDy=0;entryX=1;entryY=0.5;entryDx=0;entryDy=0;" parent="1" source="9XNof_qz7bPZeMCd8-94-9" target="9XNof_qz7bPZeMCd8-94-5" edge="1">
          <mxGeometry relative="1" as="geometry" />
        </mxCell>
        <mxCell id="9XNof_qz7bPZeMCd8-94-9" value="Support" style="rounded=1;whiteSpace=wrap;html=1;fillColor=#d5e8d4;strokeColor=#82b366;" parent="1" vertex="1">
          <mxGeometry x="690" y="285" width="63" height="40" as="geometry" />
        </mxCell>
        <mxCell id="9XNof_qz7bPZeMCd8-94-17" style="edgeStyle=orthogonalEdgeStyle;rounded=0;orthogonalLoop=1;jettySize=auto;html=1;exitX=0.5;exitY=1;exitDx=0;exitDy=0;entryX=0.625;entryY=-0.023;entryDx=0;entryDy=0;entryPerimeter=0;" parent="1" source="9XNof_qz7bPZeMCd8-94-18" target="9XNof_qz7bPZeMCd8-94-3" edge="1">
          <mxGeometry relative="1" as="geometry" />
        </mxCell>
        <mxCell id="9XNof_qz7bPZeMCd8-94-18" value="Login portal" style="rounded=1;whiteSpace=wrap;html=1;" parent="1" vertex="1">
          <mxGeometry x="470" y="160" width="120" height="60" as="geometry" />
        </mxCell>
        <mxCell id="_yuL-2l5KinjgxDBFah5-1" value="Support" style="rounded=1;whiteSpace=wrap;html=1;fillColor=#d5e8d4;strokeColor=#82b366;" parent="1" vertex="1">
          <mxGeometry x="680" y="70" width="120" height="20" as="geometry" />
        </mxCell>
        <mxCell id="_yuL-2l5KinjgxDBFah5-2" value="Carelyo.in" style="rounded=1;whiteSpace=wrap;html=1;fillColor=#ffe6cc;strokeColor=#d79b00;" parent="1" vertex="1">
          <mxGeometry x="680" y="100" width="120" height="20" as="geometry" />
        </mxCell>
        <mxCell id="_yuL-2l5KinjgxDBFah5-3" value="System admin" style="rounded=1;whiteSpace=wrap;html=1;fillColor=#e1d5e7;strokeColor=#9673a6;" parent="1" vertex="1">
          <mxGeometry x="680" y="40" width="120" height="20" as="geometry" />
        </mxCell>
        <mxCell id="_yuL-2l5KinjgxDBFah5-4" value="API DATA" style="rounded=1;whiteSpace=wrap;html=1;fillColor=#f8cecc;strokeColor=#b85450;" parent="1" vertex="1">
          <mxGeometry x="680" y="130" width="120" height="20" as="geometry" />
        </mxCell>
        <mxCell id="3a9s9x0ZKAbHcCU9vH8V-1" value="Business" style="rounded=1;whiteSpace=wrap;html=1;gradientColor=#99FF99;" parent="1" vertex="1">
          <mxGeometry x="190" y="270" width="120" height="60" as="geometry" />
        </mxCell>
      </root>
    </mxGraphModel>
  </diagram>
  <diagram id="HZPZjv0xvn9DdNcvMMGj" name="Standby Doctor">
    <mxGraphModel dx="1038" dy="555" grid="1" gridSize="10" guides="1" tooltips="1" connect="1" arrows="1" fold="1" page="1" pageScale="1" pageWidth="827" pageHeight="1169" math="0" shadow="0">
      <root>
        <mxCell id="0" />
        <mxCell id="1" parent="0" />
        <mxCell id="qWBLkKRdM9igtU0wFpes-2" style="edgeStyle=orthogonalEdgeStyle;rounded=0;orthogonalLoop=1;jettySize=auto;html=1;exitX=1;exitY=0.75;exitDx=0;exitDy=0;" parent="1" source="S7F7zPQKX_dpQFGROH6r-1" edge="1">
          <mxGeometry relative="1" as="geometry">
            <mxPoint x="450" y="255" as="targetPoint" />
          </mxGeometry>
        </mxCell>
        <mxCell id="S7F7zPQKX_dpQFGROH6r-1" value="Pharmacist" style="rounded=1;whiteSpace=wrap;html=1;gradientColor=#99FF99;" parent="1" vertex="1">
          <mxGeometry x="180" y="210" width="120" height="60" as="geometry" />
        </mxCell>
        <mxCell id="qWBLkKRdM9igtU0wFpes-1" style="edgeStyle=orthogonalEdgeStyle;rounded=0;orthogonalLoop=1;jettySize=auto;html=1;exitX=0;exitY=0.25;exitDx=0;exitDy=0;" parent="1" source="S7F7zPQKX_dpQFGROH6r-3" edge="1">
          <mxGeometry relative="1" as="geometry">
            <mxPoint x="310" y="225" as="targetPoint" />
          </mxGeometry>
        </mxCell>
        <mxCell id="IF2j6wSZC314-vskq3IU-4" style="edgeStyle=orthogonalEdgeStyle;rounded=0;orthogonalLoop=1;jettySize=auto;html=1;exitX=0.25;exitY=1;exitDx=0;exitDy=0;entryX=0.25;entryY=0;entryDx=0;entryDy=0;" parent="1" source="S7F7zPQKX_dpQFGROH6r-3" target="IF2j6wSZC314-vskq3IU-2" edge="1">
          <mxGeometry relative="1" as="geometry" />
        </mxCell>
        <mxCell id="WfIihys_j0QU0o-wV923-8" style="edgeStyle=orthogonalEdgeStyle;rounded=0;orthogonalLoop=1;jettySize=auto;html=1;exitX=1;exitY=0.25;exitDx=0;exitDy=0;entryX=0;entryY=0.25;entryDx=0;entryDy=0;" parent="1" source="S7F7zPQKX_dpQFGROH6r-3" target="WfIihys_j0QU0o-wV923-1" edge="1">
          <mxGeometry relative="1" as="geometry" />
        </mxCell>
        <mxCell id="S7F7zPQKX_dpQFGROH6r-3" value="Doctor user&lt;br&gt;Standby = true" style="rounded=1;whiteSpace=wrap;html=1;gradientColor=#99FF99;" parent="1" vertex="1">
          <mxGeometry x="460" y="210" width="120" height="60" as="geometry" />
        </mxCell>
        <mxCell id="qWBLkKRdM9igtU0wFpes-3" value="Chat" style="text;html=1;align=center;verticalAlign=middle;resizable=0;points=[];autosize=1;strokeColor=none;fillColor=none;" parent="1" vertex="1">
          <mxGeometry x="340" y="230" width="40" height="20" as="geometry" />
        </mxCell>
        <mxCell id="IF2j6wSZC314-vskq3IU-1" value="Flagged prescription" style="text;html=1;align=center;verticalAlign=middle;resizable=0;points=[];autosize=1;strokeColor=none;fillColor=none;" parent="1" vertex="1">
          <mxGeometry x="310" y="260" width="120" height="20" as="geometry" />
        </mxCell>
        <mxCell id="IF2j6wSZC314-vskq3IU-3" style="edgeStyle=orthogonalEdgeStyle;rounded=0;orthogonalLoop=1;jettySize=auto;html=1;exitX=0.75;exitY=0;exitDx=0;exitDy=0;entryX=0.75;entryY=1;entryDx=0;entryDy=0;startArrow=none;" parent="1" source="IF2j6wSZC314-vskq3IU-5" target="S7F7zPQKX_dpQFGROH6r-3" edge="1">
          <mxGeometry relative="1" as="geometry" />
        </mxCell>
        <mxCell id="IF2j6wSZC314-vskq3IU-2" value="Doctor user&lt;br&gt;Standby = false" style="rounded=1;whiteSpace=wrap;html=1;gradientColor=#99FF99;" parent="1" vertex="1">
          <mxGeometry x="460" y="370" width="120" height="60" as="geometry" />
        </mxCell>
        <mxCell id="IF2j6wSZC314-vskq3IU-5" value="Extra help.&lt;br&gt;Standby doctor &lt;br&gt;get payed for consulting &lt;br&gt;the other doctors" style="text;html=1;align=center;verticalAlign=middle;resizable=0;points=[];autosize=1;strokeColor=#666666;fillColor=#f5f5f5;fontColor=#333333;" parent="1" vertex="1">
          <mxGeometry x="450" y="290" width="140" height="60" as="geometry" />
        </mxCell>
        <mxCell id="IF2j6wSZC314-vskq3IU-8" value="" style="edgeStyle=orthogonalEdgeStyle;rounded=0;orthogonalLoop=1;jettySize=auto;html=1;exitX=0.75;exitY=0;exitDx=0;exitDy=0;entryX=0.75;entryY=1;entryDx=0;entryDy=0;endArrow=none;" parent="1" source="IF2j6wSZC314-vskq3IU-2" target="IF2j6wSZC314-vskq3IU-5" edge="1">
          <mxGeometry relative="1" as="geometry">
            <mxPoint x="550" y="370" as="sourcePoint" />
            <mxPoint x="550" y="270" as="targetPoint" />
          </mxGeometry>
        </mxCell>
        <mxCell id="gW9Odohf7J7zl97zhVBE-1" value="Implementing in doctorUI" style="text;html=1;align=center;verticalAlign=middle;resizable=0;points=[];autosize=1;strokeColor=none;fillColor=none;" parent="1" vertex="1">
          <mxGeometry x="450" y="170" width="150" height="20" as="geometry" />
        </mxCell>
        <mxCell id="WfIihys_j0QU0o-wV923-7" style="edgeStyle=orthogonalEdgeStyle;rounded=0;orthogonalLoop=1;jettySize=auto;html=1;exitX=0;exitY=0.75;exitDx=0;exitDy=0;entryX=1;entryY=0.75;entryDx=0;entryDy=0;" parent="1" source="WfIihys_j0QU0o-wV923-1" target="S7F7zPQKX_dpQFGROH6r-3" edge="1">
          <mxGeometry relative="1" as="geometry">
            <mxPoint x="590" y="255" as="targetPoint" />
          </mxGeometry>
        </mxCell>
        <mxCell id="3uoZXJZjRJYE8axheO5t-2" value="" style="edgeStyle=orthogonalEdgeStyle;rounded=0;orthogonalLoop=1;jettySize=auto;html=1;" parent="1" source="WfIihys_j0QU0o-wV923-1" target="3uoZXJZjRJYE8axheO5t-1" edge="1">
          <mxGeometry relative="1" as="geometry" />
        </mxCell>
        <mxCell id="WfIihys_j0QU0o-wV923-1" value="Bad lab result" style="rounded=1;whiteSpace=wrap;html=1;gradientColor=#99FF99;" parent="1" vertex="1">
          <mxGeometry x="680" y="210" width="120" height="60" as="geometry" />
        </mxCell>
        <mxCell id="WfIihys_j0QU0o-wV923-9" value="Chat" style="text;html=1;align=center;verticalAlign=middle;resizable=0;points=[];autosize=1;strokeColor=none;fillColor=none;" parent="1" vertex="1">
          <mxGeometry x="610" y="230" width="40" height="20" as="geometry" />
        </mxCell>
        <mxCell id="3uoZXJZjRJYE8axheO5t-1" value="Hospital" style="whiteSpace=wrap;html=1;rounded=1;gradientColor=#99FF99;" parent="1" vertex="1">
          <mxGeometry x="680" y="70" width="120" height="60" as="geometry" />
        </mxCell>
      </root>
    </mxGraphModel>
  </diagram>
  <diagram id="vly6KQtdBEnt2ZJApPzL" name="Laboratory Admin">
    <mxGraphModel dx="2310" dy="793" grid="1" gridSize="10" guides="1" tooltips="1" connect="1" arrows="1" fold="1" page="1" pageScale="1" pageWidth="827" pageHeight="1169" math="0" shadow="0">
      <root>
        <mxCell id="0" />
        <mxCell id="1" parent="0" />
        <mxCell id="zqBNRn7x1Ii20lgxjuIZ-1" style="edgeStyle=orthogonalEdgeStyle;rounded=0;orthogonalLoop=1;jettySize=auto;html=1;exitX=0;exitY=0.5;exitDx=0;exitDy=0;fillColor=#f8cecc;strokeColor=#b85450;" parent="1" source="zqBNRn7x1Ii20lgxjuIZ-2" target="zqBNRn7x1Ii20lgxjuIZ-4" edge="1">
          <mxGeometry relative="1" as="geometry" />
        </mxCell>
        <mxCell id="zqBNRn7x1Ii20lgxjuIZ-2" value="Login page" style="rounded=1;whiteSpace=wrap;html=1;fontSize=12;glass=0;strokeWidth=1;shadow=0;fillColor=#d5e8d4;strokeColor=#82b366;" parent="1" vertex="1">
          <mxGeometry x="323" y="500" width="120" height="40" as="geometry" />
        </mxCell>
        <mxCell id="zqBNRn7x1Ii20lgxjuIZ-3" style="edgeStyle=orthogonalEdgeStyle;rounded=0;orthogonalLoop=1;jettySize=auto;html=1;exitX=0;exitY=0.5;exitDx=0;exitDy=0;entryX=1;entryY=0.5;entryDx=0;entryDy=0;fillColor=#f8cecc;strokeColor=#b85450;" parent="1" source="zqBNRn7x1Ii20lgxjuIZ-4" target="zqBNRn7x1Ii20lgxjuIZ-13" edge="1">
          <mxGeometry relative="1" as="geometry" />
        </mxCell>
        <mxCell id="zqBNRn7x1Ii20lgxjuIZ-4" value="Admin login" style="rhombus;whiteSpace=wrap;html=1;shadow=0;fontFamily=Helvetica;fontSize=12;align=center;strokeWidth=1;spacing=6;spacingTop=-4;fillColor=#d5e8d4;strokeColor=#82b366;" parent="1" vertex="1">
          <mxGeometry x="123" y="480" width="100" height="80" as="geometry" />
        </mxCell>
        <mxCell id="zqBNRn7x1Ii20lgxjuIZ-5" style="edgeStyle=orthogonalEdgeStyle;rounded=0;orthogonalLoop=1;jettySize=auto;html=1;exitX=0.75;exitY=0;exitDx=0;exitDy=0;entryX=0.5;entryY=1;entryDx=0;entryDy=0;" parent="1" source="zqBNRn7x1Ii20lgxjuIZ-8" target="zqBNRn7x1Ii20lgxjuIZ-11" edge="1">
          <mxGeometry relative="1" as="geometry" />
        </mxCell>
        <mxCell id="zqBNRn7x1Ii20lgxjuIZ-6" style="edgeStyle=orthogonalEdgeStyle;rounded=0;orthogonalLoop=1;jettySize=auto;html=1;exitX=0.25;exitY=0;exitDx=0;exitDy=0;entryX=0.5;entryY=1;entryDx=0;entryDy=0;" parent="1" source="zqBNRn7x1Ii20lgxjuIZ-8" target="zqBNRn7x1Ii20lgxjuIZ-9" edge="1">
          <mxGeometry relative="1" as="geometry" />
        </mxCell>
        <mxCell id="zqBNRn7x1Ii20lgxjuIZ-7" style="edgeStyle=orthogonalEdgeStyle;rounded=0;orthogonalLoop=1;jettySize=auto;html=1;exitX=0.25;exitY=1;exitDx=0;exitDy=0;entryX=0.5;entryY=0;entryDx=0;entryDy=0;" parent="1" source="zqBNRn7x1Ii20lgxjuIZ-8" target="zqBNRn7x1Ii20lgxjuIZ-10" edge="1">
          <mxGeometry relative="1" as="geometry" />
        </mxCell>
        <mxCell id="zqBNRn7x1Ii20lgxjuIZ-8" value="Admin dashboard" style="rounded=1;whiteSpace=wrap;html=1;fontSize=12;glass=0;strokeWidth=1;shadow=0;fillColor=#fff2cc;strokeColor=#d6b656;" parent="1" vertex="1">
          <mxGeometry x="-287" y="500" width="120" height="40" as="geometry" />
        </mxCell>
        <mxCell id="zqBNRn7x1Ii20lgxjuIZ-9" value="Update laboratory&lt;br&gt;&amp;nbsp;profile" style="rounded=1;whiteSpace=wrap;html=1;fillColor=#fff2cc;strokeColor=#d6b656;" parent="1" vertex="1">
          <mxGeometry x="-450" y="400" width="120" height="60" as="geometry" />
        </mxCell>
        <mxCell id="zqBNRn7x1Ii20lgxjuIZ-10" value="Search for Scientist" style="rounded=1;whiteSpace=wrap;html=1;fillColor=#fff2cc;strokeColor=#d6b656;" parent="1" vertex="1">
          <mxGeometry x="-317" y="580" width="120" height="60" as="geometry" />
        </mxCell>
        <mxCell id="zqBNRn7x1Ii20lgxjuIZ-11" value="Add Scientist" style="rounded=1;whiteSpace=wrap;html=1;fillColor=#fff2cc;strokeColor=#d6b656;" parent="1" vertex="1">
          <mxGeometry x="-257" y="390" width="120" height="60" as="geometry" />
        </mxCell>
        <mxCell id="zqBNRn7x1Ii20lgxjuIZ-12" style="edgeStyle=orthogonalEdgeStyle;rounded=0;orthogonalLoop=1;jettySize=auto;html=1;exitX=0;exitY=0.5;exitDx=0;exitDy=0;entryX=1;entryY=0.5;entryDx=0;entryDy=0;fillColor=#d5e8d4;strokeColor=#82b366;" parent="1" source="zqBNRn7x1Ii20lgxjuIZ-13" target="zqBNRn7x1Ii20lgxjuIZ-8" edge="1">
          <mxGeometry relative="1" as="geometry" />
        </mxCell>
        <mxCell id="zqBNRn7x1Ii20lgxjuIZ-13" value="Agreements&lt;br&gt;Only once" style="rounded=1;whiteSpace=wrap;html=1;" parent="1" vertex="1">
          <mxGeometry x="-117" y="490" width="120" height="60" as="geometry" />
        </mxCell>
        <mxCell id="zqBNRn7x1Ii20lgxjuIZ-14" value="If agreement False" style="text;html=1;align=center;verticalAlign=middle;resizable=0;points=[];autosize=1;strokeColor=none;fillColor=none;" parent="1" vertex="1">
          <mxGeometry x="8" y="490" width="120" height="20" as="geometry" />
        </mxCell>
        <mxCell id="zqBNRn7x1Ii20lgxjuIZ-15" value="Else jump straight &lt;br&gt;to dashboard" style="text;html=1;align=center;verticalAlign=middle;resizable=0;points=[];autosize=1;strokeColor=none;fillColor=none;" parent="1" vertex="1">
          <mxGeometry x="13" y="530" width="110" height="30" as="geometry" />
        </mxCell>
        <mxCell id="zqBNRn7x1Ii20lgxjuIZ-16" value="True" style="text;html=1;align=center;verticalAlign=middle;resizable=0;points=[];autosize=1;strokeColor=none;fillColor=none;" parent="1" vertex="1">
          <mxGeometry x="-157" y="500" width="40" height="20" as="geometry" />
        </mxCell>
        <mxCell id="zqBNRn7x1Ii20lgxjuIZ-17" style="edgeStyle=orthogonalEdgeStyle;rounded=0;orthogonalLoop=1;jettySize=auto;html=1;exitX=0.5;exitY=1;exitDx=0;exitDy=0;" parent="1" edge="1">
          <mxGeometry relative="1" as="geometry">
            <mxPoint x="173" y="450" as="sourcePoint" />
            <mxPoint x="173" y="450" as="targetPoint" />
          </mxGeometry>
        </mxCell>
        <mxCell id="zqBNRn7x1Ii20lgxjuIZ-18" value="&lt;span style=&quot;color: rgba(0 , 0 , 0 , 0) ; font-family: monospace ; font-size: 0px&quot;&gt;%3CmxGraphModel%3E%3Croot%3E%3CmxCell%20id%3D%220%22%2F%3E%3CmxCell%20id%3D%221%22%20parent%3D%220%22%2F%3E%3CmxCell%20id%3D%222%22%20value%3D%22%26lt%3Bspan%20style%3D%26quot%3Bcolor%3A%20rgb(0%20%2C%200%20%2C%200)%20%3B%20font-family%3A%20%26amp%3B%2334%3Bhelvetica%26amp%3B%2334%3B%20%3B%20font-size%3A%2012px%20%3B%20font-style%3A%20normal%20%3B%20font-weight%3A%20400%20%3B%20letter-spacing%3A%20normal%20%3B%20text-align%3A%20center%20%3B%20text-indent%3A%200px%20%3B%20text-transform%3A%20none%20%3B%20word-spacing%3A%200px%20%3B%20background-color%3A%20rgb(248%20%2C%20249%20%2C%20250)%20%3B%20display%3A%20inline%20%3B%20float%3A%20none%26quot%3B%26gt%3BNeed%20approval%20from%20carelyo%20businiess%26lt%3B%2Fspan%26gt%3B%22%20style%3D%22text%3BwhiteSpace%3Dwrap%3Bhtml%3D1%3B%22%20vertex%3D%221%22%20parent%3D%221%22%3E%3CmxGeometry%20x%3D%22800%22%20y%3D%22330%22%20width%3D%22170%22%20height%3D%2230%22%20as%3D%22geometry%22%2F%3E%3C%2FmxCell%3E%3C%2Froot%3E%3C%2FmxGraphModel%3E&lt;/span&gt;" style="text;html=1;align=center;verticalAlign=middle;resizable=0;points=[];autosize=1;strokeColor=none;fillColor=none;" parent="1" vertex="1">
          <mxGeometry x="259" y="539" width="20" height="20" as="geometry" />
        </mxCell>
        <mxCell id="SyikbjOBl8xK9jFEjHcf-1" value="&lt;span style=&quot;color: rgb(0 , 0 , 0) ; font-family: &amp;#34;helvetica&amp;#34; ; font-size: 12px ; font-style: normal ; font-weight: 400 ; letter-spacing: normal ; text-align: center ; text-indent: 0px ; text-transform: none ; word-spacing: 0px ; background-color: rgb(248 , 249 , 250) ; display: inline ; float: none&quot;&gt;Need approval from carelyo businiess&lt;/span&gt;" style="text;whiteSpace=wrap;html=1;" vertex="1" parent="1">
          <mxGeometry x="230" y="480" width="170" height="30" as="geometry" />
        </mxCell>
      </root>
    </mxGraphModel>
  </diagram>
  <diagram id="hbAV4qKuS0OOMwBRokoU" name="Laboratory Scientist">
    <mxGraphModel dx="1221" dy="653" grid="1" gridSize="10" guides="1" tooltips="1" connect="1" arrows="1" fold="1" page="1" pageScale="1" pageWidth="827" pageHeight="1169" math="0" shadow="0">
      <root>
        <mxCell id="0" />
        <mxCell id="1" parent="0" />
        <mxCell id="P2lGT8z7iJfvjMpvSOZp-1" style="edgeStyle=orthogonalEdgeStyle;rounded=0;orthogonalLoop=1;jettySize=auto;html=1;fillColor=#f8cecc;strokeColor=#b85450;" parent="1" target="P2lGT8z7iJfvjMpvSOZp-2" edge="1">
          <mxGeometry relative="1" as="geometry">
            <mxPoint x="800" y="550" as="sourcePoint" />
          </mxGeometry>
        </mxCell>
        <mxCell id="7RrUh71tft_wb0q0kz1x-29" style="edgeStyle=orthogonalEdgeStyle;rounded=0;orthogonalLoop=1;jettySize=auto;html=1;exitX=0.5;exitY=0;exitDx=0;exitDy=0;" parent="1" source="P2lGT8z7iJfvjMpvSOZp-2" edge="1">
          <mxGeometry relative="1" as="geometry">
            <mxPoint x="560" y="490" as="targetPoint" />
          </mxGeometry>
        </mxCell>
        <mxCell id="P2lGT8z7iJfvjMpvSOZp-2" value="Admin login" style="rhombus;whiteSpace=wrap;html=1;shadow=0;fontFamily=Helvetica;fontSize=12;align=center;strokeWidth=1;spacing=6;spacingTop=-4;fillColor=#d5e8d4;strokeColor=#82b366;" parent="1" vertex="1">
          <mxGeometry x="510" y="510" width="100" height="80" as="geometry" />
        </mxCell>
        <mxCell id="P2lGT8z7iJfvjMpvSOZp-3" style="edgeStyle=orthogonalEdgeStyle;rounded=0;orthogonalLoop=1;jettySize=auto;html=1;exitX=0.5;exitY=1;exitDx=0;exitDy=0;" parent="1" edge="1">
          <mxGeometry relative="1" as="geometry">
            <mxPoint x="560" y="400" as="sourcePoint" />
            <mxPoint x="560" y="400" as="targetPoint" />
          </mxGeometry>
        </mxCell>
        <mxCell id="P2lGT8z7iJfvjMpvSOZp-4" value="Need approval from laboratory admin" style="text;html=1;align=center;verticalAlign=middle;resizable=0;points=[];autosize=1;strokeColor=none;fillColor=none;" parent="1" vertex="1">
          <mxGeometry x="590" y="560" width="210" height="20" as="geometry" />
        </mxCell>
        <mxCell id="oLnuNNZdHlaQf9hJuV4k-1" value="Loginpage" style="rounded=1;whiteSpace=wrap;html=1;fontSize=12;glass=0;strokeWidth=1;shadow=0;fillColor=#d5e8d4;strokeColor=#82b366;" parent="1" vertex="1">
          <mxGeometry x="680" y="510" width="120" height="40" as="geometry" />
        </mxCell>
        <mxCell id="7RrUh71tft_wb0q0kz1x-7" style="edgeStyle=orthogonalEdgeStyle;rounded=0;orthogonalLoop=1;jettySize=auto;html=1;exitX=0.5;exitY=0;exitDx=0;exitDy=0;entryX=0.5;entryY=1;entryDx=0;entryDy=0;" parent="1" source="7RrUh71tft_wb0q0kz1x-3" target="7RrUh71tft_wb0q0kz1x-5" edge="1">
          <mxGeometry relative="1" as="geometry" />
        </mxCell>
        <mxCell id="7RrUh71tft_wb0q0kz1x-3" value="Scan patient lab req barcode" style="rounded=1;whiteSpace=wrap;html=1;fillColor=#d5e8d4;strokeColor=#82b366;" parent="1" vertex="1">
          <mxGeometry x="500" y="355" width="120" height="60" as="geometry" />
        </mxCell>
        <mxCell id="7RrUh71tft_wb0q0kz1x-9" value="" style="edgeStyle=orthogonalEdgeStyle;rounded=0;orthogonalLoop=1;jettySize=auto;html=1;" parent="1" source="7RrUh71tft_wb0q0kz1x-5" target="7RrUh71tft_wb0q0kz1x-8" edge="1">
          <mxGeometry relative="1" as="geometry" />
        </mxCell>
        <mxCell id="7RrUh71tft_wb0q0kz1x-5" value="Show new lab req" style="rounded=1;whiteSpace=wrap;html=1;fillColor=#d5e8d4;strokeColor=#82b366;" parent="1" vertex="1">
          <mxGeometry x="500" y="270" width="120" height="30" as="geometry" />
        </mxCell>
        <mxCell id="7RrUh71tft_wb0q0kz1x-10" style="edgeStyle=orthogonalEdgeStyle;rounded=0;orthogonalLoop=1;jettySize=auto;html=1;exitX=1;exitY=0.5;exitDx=0;exitDy=0;" parent="1" source="7RrUh71tft_wb0q0kz1x-8" edge="1">
          <mxGeometry relative="1" as="geometry">
            <mxPoint x="820" y="285" as="targetPoint" />
          </mxGeometry>
        </mxCell>
        <mxCell id="7RrUh71tft_wb0q0kz1x-13" style="edgeStyle=orthogonalEdgeStyle;rounded=0;orthogonalLoop=1;jettySize=auto;html=1;exitX=0.5;exitY=1;exitDx=0;exitDy=0;entryX=0.5;entryY=0;entryDx=0;entryDy=0;" parent="1" source="7RrUh71tft_wb0q0kz1x-8" target="7RrUh71tft_wb0q0kz1x-12" edge="1">
          <mxGeometry relative="1" as="geometry" />
        </mxCell>
        <mxCell id="7RrUh71tft_wb0q0kz1x-8" value="Payment" style="whiteSpace=wrap;html=1;fillColor=#d5e8d4;strokeColor=#82b366;rounded=1;" parent="1" vertex="1">
          <mxGeometry x="700" y="272.5" width="80" height="25" as="geometry" />
        </mxCell>
        <mxCell id="7RrUh71tft_wb0q0kz1x-14" style="edgeStyle=orthogonalEdgeStyle;rounded=0;orthogonalLoop=1;jettySize=auto;html=1;exitX=0.5;exitY=1;exitDx=0;exitDy=0;" parent="1" source="7RrUh71tft_wb0q0kz1x-11" edge="1">
          <mxGeometry relative="1" as="geometry">
            <mxPoint x="860" y="320" as="targetPoint" />
          </mxGeometry>
        </mxCell>
        <mxCell id="7RrUh71tft_wb0q0kz1x-11" value="Accepted" style="whiteSpace=wrap;html=1;fillColor=#d5e8d4;strokeColor=#82b366;rounded=1;" parent="1" vertex="1">
          <mxGeometry x="820" y="272.5" width="80" height="25" as="geometry" />
        </mxCell>
        <mxCell id="7RrUh71tft_wb0q0kz1x-43" style="edgeStyle=orthogonalEdgeStyle;rounded=0;orthogonalLoop=1;jettySize=auto;html=1;exitX=0.5;exitY=1;exitDx=0;exitDy=0;entryX=1;entryY=0.5;entryDx=0;entryDy=0;" parent="1" source="7RrUh71tft_wb0q0kz1x-12" target="7RrUh71tft_wb0q0kz1x-3" edge="1">
          <mxGeometry relative="1" as="geometry" />
        </mxCell>
        <mxCell id="7RrUh71tft_wb0q0kz1x-12" value="Declined" style="whiteSpace=wrap;html=1;fillColor=#f8cecc;strokeColor=#b85450;rounded=1;" parent="1" vertex="1">
          <mxGeometry x="700" y="310" width="80" height="25" as="geometry" />
        </mxCell>
        <mxCell id="7RrUh71tft_wb0q0kz1x-19" style="edgeStyle=orthogonalEdgeStyle;rounded=0;orthogonalLoop=1;jettySize=auto;html=1;exitX=0.5;exitY=1;exitDx=0;exitDy=0;entryX=0.431;entryY=-0.007;entryDx=0;entryDy=0;entryPerimeter=0;" parent="1" source="7RrUh71tft_wb0q0kz1x-15" target="7RrUh71tft_wb0q0kz1x-17" edge="1">
          <mxGeometry relative="1" as="geometry" />
        </mxCell>
        <mxCell id="7RrUh71tft_wb0q0kz1x-15" value="Schedule test" style="whiteSpace=wrap;html=1;fillColor=#d5e8d4;strokeColor=#82b366;rounded=1;" parent="1" vertex="1">
          <mxGeometry x="820" y="320" width="80" height="30" as="geometry" />
        </mxCell>
        <mxCell id="7RrUh71tft_wb0q0kz1x-42" style="edgeStyle=orthogonalEdgeStyle;rounded=0;orthogonalLoop=1;jettySize=auto;html=1;exitX=1;exitY=0.5;exitDx=0;exitDy=0;entryX=0.5;entryY=0;entryDx=0;entryDy=0;" parent="1" source="7RrUh71tft_wb0q0kz1x-17" target="7RrUh71tft_wb0q0kz1x-33" edge="1">
          <mxGeometry relative="1" as="geometry" />
        </mxCell>
        <mxCell id="7RrUh71tft_wb0q0kz1x-17" value="Calendar" style="whiteSpace=wrap;html=1;fillColor=#d5e8d4;strokeColor=#82b366;rounded=1;" parent="1" vertex="1">
          <mxGeometry x="820" y="370" width="80" height="30" as="geometry" />
        </mxCell>
        <mxCell id="7RrUh71tft_wb0q0kz1x-21" value="Payment not done" style="text;html=1;align=center;verticalAlign=middle;resizable=0;points=[];autosize=1;strokeColor=none;fillColor=none;" parent="1" vertex="1">
          <mxGeometry x="560" y="310" width="110" height="20" as="geometry" />
        </mxCell>
        <mxCell id="7RrUh71tft_wb0q0kz1x-31" style="edgeStyle=orthogonalEdgeStyle;rounded=0;orthogonalLoop=1;jettySize=auto;html=1;exitX=0.5;exitY=0;exitDx=0;exitDy=0;entryX=0.5;entryY=1;entryDx=0;entryDy=0;" parent="1" source="7RrUh71tft_wb0q0kz1x-30" target="7RrUh71tft_wb0q0kz1x-3" edge="1">
          <mxGeometry relative="1" as="geometry" />
        </mxCell>
        <mxCell id="7RrUh71tft_wb0q0kz1x-41" style="edgeStyle=orthogonalEdgeStyle;rounded=0;orthogonalLoop=1;jettySize=auto;html=1;exitX=1;exitY=0.5;exitDx=0;exitDy=0;entryX=0;entryY=0.5;entryDx=0;entryDy=0;" parent="1" source="7RrUh71tft_wb0q0kz1x-30" target="7RrUh71tft_wb0q0kz1x-33" edge="1">
          <mxGeometry relative="1" as="geometry">
            <mxPoint x="950" y="460" as="targetPoint" />
          </mxGeometry>
        </mxCell>
        <mxCell id="7RrUh71tft_wb0q0kz1x-30" value="Dashboard" style="rounded=1;whiteSpace=wrap;html=1;fillColor=#d5e8d4;strokeColor=#82b366;" parent="1" vertex="1">
          <mxGeometry x="500" y="430" width="120" height="60" as="geometry" />
        </mxCell>
        <mxCell id="7RrUh71tft_wb0q0kz1x-49" style="edgeStyle=orthogonalEdgeStyle;rounded=0;orthogonalLoop=1;jettySize=auto;html=1;exitX=1;exitY=0.25;exitDx=0;exitDy=0;" parent="1" source="7RrUh71tft_wb0q0kz1x-33" edge="1">
          <mxGeometry relative="1" as="geometry">
            <mxPoint x="1110" y="445" as="targetPoint" />
          </mxGeometry>
        </mxCell>
        <mxCell id="yivevzg26I1S30fWxKQV-2" style="edgeStyle=orthogonalEdgeStyle;rounded=0;orthogonalLoop=1;jettySize=auto;html=1;exitX=0.5;exitY=1;exitDx=0;exitDy=0;entryX=0.5;entryY=0;entryDx=0;entryDy=0;" parent="1" source="7RrUh71tft_wb0q0kz1x-33" target="7RrUh71tft_wb0q0kz1x-74" edge="1">
          <mxGeometry relative="1" as="geometry" />
        </mxCell>
        <mxCell id="7RrUh71tft_wb0q0kz1x-33" value="Open lab tests" style="rounded=1;whiteSpace=wrap;html=1;fillColor=#d5e8d4;strokeColor=#82b366;" parent="1" vertex="1">
          <mxGeometry x="960" y="430" width="120" height="60" as="geometry" />
        </mxCell>
        <mxCell id="7RrUh71tft_wb0q0kz1x-45" value="Remove barcode" style="whiteSpace=wrap;html=1;fillColor=#f8cecc;strokeColor=#b85450;rounded=1;" parent="1" vertex="1">
          <mxGeometry x="1110" y="430" width="80" height="27.5" as="geometry" />
        </mxCell>
        <mxCell id="7RrUh71tft_wb0q0kz1x-54" value="Change status to open" style="text;html=1;align=center;verticalAlign=middle;resizable=0;points=[];autosize=1;strokeColor=none;fillColor=none;" parent="1" vertex="1">
          <mxGeometry x="910" y="360" width="140" height="20" as="geometry" />
        </mxCell>
        <mxCell id="7RrUh71tft_wb0q0kz1x-69" style="edgeStyle=orthogonalEdgeStyle;rounded=0;orthogonalLoop=1;jettySize=auto;html=1;exitX=1;exitY=0.5;exitDx=0;exitDy=0;entryX=0;entryY=0.5;entryDx=0;entryDy=0;" parent="1" source="7RrUh71tft_wb0q0kz1x-58" target="7RrUh71tft_wb0q0kz1x-61" edge="1">
          <mxGeometry relative="1" as="geometry" />
        </mxCell>
        <mxCell id="7RrUh71tft_wb0q0kz1x-58" value="Bad" style="whiteSpace=wrap;html=1;fillColor=#f8cecc;strokeColor=#b85450;rounded=1;" parent="1" vertex="1">
          <mxGeometry x="1120" y="701.25" width="80" height="27.5" as="geometry" />
        </mxCell>
        <mxCell id="7RrUh71tft_wb0q0kz1x-61" value="Standby doctor" style="whiteSpace=wrap;html=1;fillColor=#d5e8d4;strokeColor=#82b366;rounded=1;" parent="1" vertex="1">
          <mxGeometry x="1240" y="701.25" width="110" height="27.5" as="geometry" />
        </mxCell>
        <mxCell id="yivevzg26I1S30fWxKQV-4" style="edgeStyle=orthogonalEdgeStyle;rounded=0;orthogonalLoop=1;jettySize=auto;html=1;exitX=0.5;exitY=1;exitDx=0;exitDy=0;entryX=0.5;entryY=0;entryDx=0;entryDy=0;" parent="1" source="7RrUh71tft_wb0q0kz1x-62" target="7RrUh71tft_wb0q0kz1x-66" edge="1">
          <mxGeometry relative="1" as="geometry" />
        </mxCell>
        <mxCell id="7RrUh71tft_wb0q0kz1x-62" value="Uploaded results" style="rounded=1;whiteSpace=wrap;html=1;fillColor=#d5e8d4;strokeColor=#82b366;" parent="1" vertex="1">
          <mxGeometry x="960" y="590" width="120" height="60" as="geometry" />
        </mxCell>
        <mxCell id="7RrUh71tft_wb0q0kz1x-68" style="edgeStyle=orthogonalEdgeStyle;rounded=0;orthogonalLoop=1;jettySize=auto;html=1;exitX=1;exitY=0.5;exitDx=0;exitDy=0;entryX=0;entryY=0.5;entryDx=0;entryDy=0;" parent="1" source="7RrUh71tft_wb0q0kz1x-66" target="7RrUh71tft_wb0q0kz1x-58" edge="1">
          <mxGeometry relative="1" as="geometry" />
        </mxCell>
        <mxCell id="7RrUh71tft_wb0q0kz1x-70" style="edgeStyle=orthogonalEdgeStyle;rounded=0;orthogonalLoop=1;jettySize=auto;html=1;exitX=0.5;exitY=1;exitDx=0;exitDy=0;" parent="1" source="7RrUh71tft_wb0q0kz1x-66" edge="1">
          <mxGeometry relative="1" as="geometry">
            <mxPoint x="1020" y="780" as="targetPoint" />
          </mxGeometry>
        </mxCell>
        <mxCell id="7RrUh71tft_wb0q0kz1x-66" value="Check if the test results are normal or bad.&lt;br&gt;&lt;br&gt;Close lab test" style="rounded=1;whiteSpace=wrap;html=1;fillColor=#d5e8d4;strokeColor=#82b366;" parent="1" vertex="1">
          <mxGeometry x="960" y="670" width="120" height="90" as="geometry" />
        </mxCell>
        <mxCell id="7RrUh71tft_wb0q0kz1x-73" style="edgeStyle=orthogonalEdgeStyle;rounded=0;orthogonalLoop=1;jettySize=auto;html=1;exitX=0;exitY=0.5;exitDx=0;exitDy=0;entryX=0;entryY=0.5;entryDx=0;entryDy=0;" parent="1" source="7RrUh71tft_wb0q0kz1x-71" target="7RrUh71tft_wb0q0kz1x-30" edge="1">
          <mxGeometry relative="1" as="geometry" />
        </mxCell>
        <mxCell id="7RrUh71tft_wb0q0kz1x-71" value="Normal/good" style="rounded=1;whiteSpace=wrap;html=1;fillColor=#d5e8d4;strokeColor=#82b366;" parent="1" vertex="1">
          <mxGeometry x="960" y="780" width="120" height="30" as="geometry" />
        </mxCell>
        <mxCell id="yivevzg26I1S30fWxKQV-3" style="edgeStyle=orthogonalEdgeStyle;rounded=0;orthogonalLoop=1;jettySize=auto;html=1;exitX=0.5;exitY=1;exitDx=0;exitDy=0;entryX=0.5;entryY=0;entryDx=0;entryDy=0;" parent="1" source="7RrUh71tft_wb0q0kz1x-74" target="7RrUh71tft_wb0q0kz1x-62" edge="1">
          <mxGeometry relative="1" as="geometry" />
        </mxCell>
        <mxCell id="7RrUh71tft_wb0q0kz1x-74" value="Inputs row 4 colum&lt;br&gt;remark, upload files" style="whiteSpace=wrap;html=1;fillColor=#d5e8d4;strokeColor=#82b366;rounded=1;" parent="1" vertex="1">
          <mxGeometry x="960" y="510" width="120" height="60" as="geometry" />
        </mxCell>
      </root>
    </mxGraphModel>
  </diagram>
  <diagram id="8Bx12NOtyKttuFHgSZVt" name="k8-deployment-staging">
    <mxGraphModel dx="1038" dy="555" grid="1" gridSize="10" guides="1" tooltips="1" connect="1" arrows="1" fold="1" page="1" pageScale="1" pageWidth="827" pageHeight="1169" math="0" shadow="0">
      <root>
        <mxCell id="0" />
        <mxCell id="1" parent="0" />
        <mxCell id="-e35BcGWPDZdbhpxwWep-1" style="edgeStyle=orthogonalEdgeStyle;rounded=0;orthogonalLoop=1;jettySize=auto;html=1;" parent="1" source="-e35BcGWPDZdbhpxwWep-4" target="-e35BcGWPDZdbhpxwWep-13" edge="1">
          <mxGeometry relative="1" as="geometry" />
        </mxCell>
        <mxCell id="-e35BcGWPDZdbhpxwWep-29" value="" style="edgeStyle=orthogonalEdgeStyle;rounded=0;orthogonalLoop=1;jettySize=auto;html=1;" parent="1" source="-e35BcGWPDZdbhpxwWep-4" target="-e35BcGWPDZdbhpxwWep-28" edge="1">
          <mxGeometry relative="1" as="geometry" />
        </mxCell>
        <mxCell id="-e35BcGWPDZdbhpxwWep-4" value="Develop&lt;br&gt;(.in)" style="rounded=0;whiteSpace=wrap;html=1;" parent="1" vertex="1">
          <mxGeometry x="300" y="305" width="120" height="60" as="geometry" />
        </mxCell>
        <mxCell id="-e35BcGWPDZdbhpxwWep-5" value="Staging&lt;br&gt;(.top)" style="rounded=0;whiteSpace=wrap;html=1;" parent="1" vertex="1">
          <mxGeometry x="490" y="305" width="120" height="60" as="geometry" />
        </mxCell>
        <mxCell id="-e35BcGWPDZdbhpxwWep-11" style="edgeStyle=orthogonalEdgeStyle;rounded=0;orthogonalLoop=1;jettySize=auto;html=1;entryX=0;entryY=0.5;entryDx=0;entryDy=0;" parent="1" source="-e35BcGWPDZdbhpxwWep-12" target="-e35BcGWPDZdbhpxwWep-4" edge="1">
          <mxGeometry relative="1" as="geometry" />
        </mxCell>
        <mxCell id="-e35BcGWPDZdbhpxwWep-12" value="Feature branch" style="rounded=0;whiteSpace=wrap;html=1;" parent="1" vertex="1">
          <mxGeometry x="20" y="305" width="120" height="60" as="geometry" />
        </mxCell>
        <mxCell id="-e35BcGWPDZdbhpxwWep-13" value="Build Develop image AFTER merge" style="rounded=1;whiteSpace=wrap;html=1;" parent="1" vertex="1">
          <mxGeometry x="300" y="540" width="120" height="55" as="geometry" />
        </mxCell>
        <mxCell id="-e35BcGWPDZdbhpxwWep-14" style="edgeStyle=orthogonalEdgeStyle;rounded=0;orthogonalLoop=1;jettySize=auto;html=1;" parent="1" source="-e35BcGWPDZdbhpxwWep-15" target="-e35BcGWPDZdbhpxwWep-22" edge="1">
          <mxGeometry relative="1" as="geometry">
            <mxPoint x="550" y="200" as="targetPoint" />
          </mxGeometry>
        </mxCell>
        <mxCell id="-e35BcGWPDZdbhpxwWep-15" value="change .env .in -&amp;gt; .top&lt;br&gt;build staging image&lt;br&gt;push staging image&lt;br&gt;update -n staging deployment in k8s&lt;br&gt;Integration test" style="rounded=0;whiteSpace=wrap;html=1;" parent="1" vertex="1">
          <mxGeometry x="281" y="90" width="230" height="80" as="geometry" />
        </mxCell>
        <mxCell id="-e35BcGWPDZdbhpxwWep-16" style="edgeStyle=orthogonalEdgeStyle;rounded=0;orthogonalLoop=1;jettySize=auto;html=1;exitX=0.5;exitY=1;exitDx=0;exitDy=0;" parent="1" source="-e35BcGWPDZdbhpxwWep-22" target="-e35BcGWPDZdbhpxwWep-5" edge="1">
          <mxGeometry relative="1" as="geometry">
            <mxPoint x="550" y="230" as="sourcePoint" />
          </mxGeometry>
        </mxCell>
        <mxCell id="-e35BcGWPDZdbhpxwWep-24" value="Yes" style="edgeLabel;html=1;align=center;verticalAlign=middle;resizable=0;points=[];" parent="-e35BcGWPDZdbhpxwWep-16" vertex="1" connectable="0">
          <mxGeometry x="-0.3158" y="-2" relative="1" as="geometry">
            <mxPoint as="offset" />
          </mxGeometry>
        </mxCell>
        <mxCell id="-e35BcGWPDZdbhpxwWep-18" style="edgeStyle=orthogonalEdgeStyle;rounded=0;orthogonalLoop=1;jettySize=auto;html=1;exitX=1;exitY=0.5;exitDx=0;exitDy=0;" parent="1" source="-e35BcGWPDZdbhpxwWep-22" edge="1">
          <mxGeometry relative="1" as="geometry">
            <mxPoint x="700" y="120" as="targetPoint" />
            <mxPoint x="660" y="215" as="sourcePoint" />
          </mxGeometry>
        </mxCell>
        <mxCell id="-e35BcGWPDZdbhpxwWep-25" value="No" style="edgeLabel;html=1;align=center;verticalAlign=middle;resizable=0;points=[];" parent="-e35BcGWPDZdbhpxwWep-18" vertex="1" connectable="0">
          <mxGeometry x="-0.7375" y="1" relative="1" as="geometry">
            <mxPoint as="offset" />
          </mxGeometry>
        </mxCell>
        <mxCell id="-e35BcGWPDZdbhpxwWep-20" style="edgeStyle=orthogonalEdgeStyle;rounded=0;orthogonalLoop=1;jettySize=auto;html=1;" parent="1" source="-e35BcGWPDZdbhpxwWep-21" edge="1">
          <mxGeometry relative="1" as="geometry">
            <mxPoint x="210" y="340" as="targetPoint" />
          </mxGeometry>
        </mxCell>
        <mxCell id="-e35BcGWPDZdbhpxwWep-21" value="Close MR&lt;br&gt;&lt;br&gt;" style="rounded=0;whiteSpace=wrap;html=1;" parent="1" vertex="1">
          <mxGeometry x="620" y="40" width="100" height="70" as="geometry" />
        </mxCell>
        <mxCell id="-e35BcGWPDZdbhpxwWep-22" value="Success" style="rhombus;whiteSpace=wrap;html=1;" parent="1" vertex="1">
          <mxGeometry x="550" y="170" width="80" height="80" as="geometry" />
        </mxCell>
        <mxCell id="-e35BcGWPDZdbhpxwWep-30" style="edgeStyle=orthogonalEdgeStyle;rounded=0;orthogonalLoop=1;jettySize=auto;html=1;entryX=0.5;entryY=1;entryDx=0;entryDy=0;" parent="1" source="-e35BcGWPDZdbhpxwWep-28" target="-e35BcGWPDZdbhpxwWep-15" edge="1">
          <mxGeometry relative="1" as="geometry" />
        </mxCell>
        <mxCell id="-e35BcGWPDZdbhpxwWep-28" value="Merge Request" style="ellipse;whiteSpace=wrap;html=1;rounded=0;" parent="1" vertex="1">
          <mxGeometry x="414" y="200" width="60" height="60" as="geometry" />
        </mxCell>
      </root>
    </mxGraphModel>
  </diagram>
  <diagram id="o2L08My6DZCsrBjtmurS" name="Hospital staff">
    <mxGraphModel dx="1865" dy="1724" grid="1" gridSize="10" guides="1" tooltips="1" connect="1" arrows="1" fold="1" page="1" pageScale="1" pageWidth="827" pageHeight="1169" math="0" shadow="0">
      <root>
        <mxCell id="0" />
        <mxCell id="1" parent="0" />
        <mxCell id="j-nSpoFc9GlK629Phl-X-41" style="edgeStyle=orthogonalEdgeStyle;rounded=0;orthogonalLoop=1;jettySize=auto;html=1;exitX=0;exitY=0.5;exitDx=0;exitDy=0;entryX=1;entryY=0.5;entryDx=0;entryDy=0;startArrow=none;" edge="1" parent="1" source="j-nSpoFc9GlK629Phl-X-42" target="KH958tpmQruKLJTCNyY8-4">
          <mxGeometry relative="1" as="geometry" />
        </mxCell>
        <mxCell id="j-nSpoFc9GlK629Phl-X-45" style="edgeStyle=orthogonalEdgeStyle;rounded=0;orthogonalLoop=1;jettySize=auto;html=1;exitX=0;exitY=0.5;exitDx=0;exitDy=0;entryX=1;entryY=0.5;entryDx=0;entryDy=0;" edge="1" parent="1" source="KH958tpmQruKLJTCNyY8-1" target="j-nSpoFc9GlK629Phl-X-44">
          <mxGeometry relative="1" as="geometry" />
        </mxCell>
        <mxCell id="KH958tpmQruKLJTCNyY8-1" value="Login" style="rounded=1;whiteSpace=wrap;html=1;" vertex="1" parent="1">
          <mxGeometry x="850" y="420" width="110" height="40" as="geometry" />
        </mxCell>
        <mxCell id="j-nSpoFc9GlK629Phl-X-56" style="edgeStyle=orthogonalEdgeStyle;rounded=0;orthogonalLoop=1;jettySize=auto;html=1;exitX=0.25;exitY=1;exitDx=0;exitDy=0;" edge="1" parent="1" source="KH958tpmQruKLJTCNyY8-4">
          <mxGeometry relative="1" as="geometry">
            <mxPoint x="365" y="500" as="targetPoint" />
          </mxGeometry>
        </mxCell>
        <mxCell id="0a4VRyAYqJWhRkCxR3qm-13" style="edgeStyle=orthogonalEdgeStyle;rounded=0;orthogonalLoop=1;jettySize=auto;html=1;exitX=0;exitY=0.5;exitDx=0;exitDy=0;" edge="1" parent="1" source="KH958tpmQruKLJTCNyY8-4">
          <mxGeometry relative="1" as="geometry">
            <mxPoint x="270" y="390" as="targetPoint" />
          </mxGeometry>
        </mxCell>
        <mxCell id="KH958tpmQruKLJTCNyY8-4" value="Dashboard" style="rounded=1;whiteSpace=wrap;html=1;fillColor=#d5e8d4;strokeColor=#82b366;gradientColor=#FFCCCC;" vertex="1" parent="1">
          <mxGeometry x="335" y="360" width="120" height="60" as="geometry" />
        </mxCell>
        <mxCell id="j-nSpoFc9GlK629Phl-X-26" style="edgeStyle=orthogonalEdgeStyle;rounded=0;orthogonalLoop=1;jettySize=auto;html=1;exitX=1;exitY=0.5;exitDx=0;exitDy=0;" edge="1" parent="1" source="KH958tpmQruKLJTCNyY8-7" target="Eo_MkPcm0yLQBjZJv3CR-3">
          <mxGeometry relative="1" as="geometry" />
        </mxCell>
        <mxCell id="KH958tpmQruKLJTCNyY8-7" value="Hospital booking&lt;br&gt;From carelyo doctor" style="rounded=1;whiteSpace=wrap;html=1;fillColor=#e1d5e7;strokeColor=#9673a6;" vertex="1" parent="1">
          <mxGeometry x="-60" y="365" width="120" height="60" as="geometry" />
        </mxCell>
        <mxCell id="0a4VRyAYqJWhRkCxR3qm-5" style="edgeStyle=orthogonalEdgeStyle;rounded=0;orthogonalLoop=1;jettySize=auto;html=1;exitX=0.25;exitY=1;exitDx=0;exitDy=0;" edge="1" parent="1" source="Eo_MkPcm0yLQBjZJv3CR-3">
          <mxGeometry relative="1" as="geometry">
            <mxPoint x="178" y="560" as="targetPoint" />
          </mxGeometry>
        </mxCell>
        <mxCell id="Eo_MkPcm0yLQBjZJv3CR-3" value="Calender (update, show).&lt;br&gt;data changes depending on user" style="rounded=1;whiteSpace=wrap;html=1;fillColor=#d5e8d4;strokeColor=#82b366;gradientColor=#FFCCCC;" vertex="1" parent="1">
          <mxGeometry x="150" y="360" width="110" height="70" as="geometry" />
        </mxCell>
        <mxCell id="Eo_MkPcm0yLQBjZJv3CR-10" value="Inc booking" style="text;html=1;align=center;verticalAlign=middle;resizable=0;points=[];autosize=1;strokeColor=none;fillColor=none;" vertex="1" parent="1">
          <mxGeometry x="70" y="370" width="80" height="20" as="geometry" />
        </mxCell>
        <mxCell id="j-nSpoFc9GlK629Phl-X-4" style="edgeStyle=orthogonalEdgeStyle;rounded=0;orthogonalLoop=1;jettySize=auto;html=1;exitX=1;exitY=0.5;exitDx=0;exitDy=0;" edge="1" parent="1" source="j-nSpoFc9GlK629Phl-X-1">
          <mxGeometry relative="1" as="geometry">
            <mxPoint x="690" y="122.5" as="targetPoint" />
          </mxGeometry>
        </mxCell>
        <mxCell id="j-nSpoFc9GlK629Phl-X-1" value="Constulation doctor/patient" style="rounded=1;whiteSpace=wrap;html=1;" vertex="1" parent="1">
          <mxGeometry x="540" y="92.5" width="120" height="60" as="geometry" />
        </mxCell>
        <mxCell id="j-nSpoFc9GlK629Phl-X-6" style="edgeStyle=orthogonalEdgeStyle;rounded=0;orthogonalLoop=1;jettySize=auto;html=1;exitX=0.5;exitY=1;exitDx=0;exitDy=0;" edge="1" parent="1" source="j-nSpoFc9GlK629Phl-X-2">
          <mxGeometry relative="1" as="geometry">
            <mxPoint x="600" y="82.5" as="targetPoint" />
          </mxGeometry>
        </mxCell>
        <mxCell id="j-nSpoFc9GlK629Phl-X-2" value="API" style="rounded=1;whiteSpace=wrap;html=1;" vertex="1" parent="1">
          <mxGeometry x="540" y="-57.5" width="120" height="60" as="geometry" />
        </mxCell>
        <mxCell id="j-nSpoFc9GlK629Phl-X-20" style="edgeStyle=orthogonalEdgeStyle;rounded=0;orthogonalLoop=1;jettySize=auto;html=1;exitX=0.5;exitY=0;exitDx=0;exitDy=0;" edge="1" parent="1" source="j-nSpoFc9GlK629Phl-X-3">
          <mxGeometry relative="1" as="geometry">
            <mxPoint x="930" y="12.5" as="targetPoint" />
          </mxGeometry>
        </mxCell>
        <mxCell id="j-nSpoFc9GlK629Phl-X-3" value="Patient go to booking&lt;br&gt;(Open calendar with only avalible times)" style="rounded=1;whiteSpace=wrap;html=1;" vertex="1" parent="1">
          <mxGeometry x="870" y="92.5" width="120" height="60" as="geometry" />
        </mxCell>
        <mxCell id="j-nSpoFc9GlK629Phl-X-7" value="Calender from hospital" style="text;html=1;align=center;verticalAlign=middle;resizable=0;points=[];autosize=1;strokeColor=none;fillColor=none;" vertex="1" parent="1">
          <mxGeometry x="520" y="22.5" width="140" height="20" as="geometry" />
        </mxCell>
        <mxCell id="j-nSpoFc9GlK629Phl-X-10" style="edgeStyle=orthogonalEdgeStyle;rounded=0;orthogonalLoop=1;jettySize=auto;html=1;exitX=0;exitY=0.5;exitDx=0;exitDy=0;entryX=1;entryY=0.5;entryDx=0;entryDy=0;" edge="1" parent="1" source="j-nSpoFc9GlK629Phl-X-8" target="j-nSpoFc9GlK629Phl-X-2">
          <mxGeometry relative="1" as="geometry" />
        </mxCell>
        <mxCell id="j-nSpoFc9GlK629Phl-X-8" value="Hospital calender updated" style="rounded=1;whiteSpace=wrap;html=1;" vertex="1" parent="1">
          <mxGeometry x="860" y="-57.5" width="130" height="60" as="geometry" />
        </mxCell>
        <mxCell id="j-nSpoFc9GlK629Phl-X-17" style="edgeStyle=orthogonalEdgeStyle;rounded=0;orthogonalLoop=1;jettySize=auto;html=1;exitX=1;exitY=0.5;exitDx=0;exitDy=0;entryX=0;entryY=0.5;entryDx=0;entryDy=0;" edge="1" parent="1" target="j-nSpoFc9GlK629Phl-X-3">
          <mxGeometry relative="1" as="geometry">
            <mxPoint x="810" y="122.5" as="sourcePoint" />
          </mxGeometry>
        </mxCell>
        <mxCell id="j-nSpoFc9GlK629Phl-X-18" value="&lt;span&gt;If hospital visit is needed&lt;/span&gt;" style="rhombus;whiteSpace=wrap;html=1;" vertex="1" parent="1">
          <mxGeometry x="700" y="67.5" width="110" height="110" as="geometry" />
        </mxCell>
        <mxCell id="0a4VRyAYqJWhRkCxR3qm-3" style="edgeStyle=orthogonalEdgeStyle;rounded=0;orthogonalLoop=1;jettySize=auto;html=1;exitX=0.75;exitY=0;exitDx=0;exitDy=0;entryX=0.5;entryY=1;entryDx=0;entryDy=0;" edge="1" parent="1" source="j-nSpoFc9GlK629Phl-X-34" target="WykMYdfSnIOiuPiWU4Pm-1">
          <mxGeometry relative="1" as="geometry" />
        </mxCell>
        <mxCell id="j-nSpoFc9GlK629Phl-X-34" value="&lt;span&gt;Ongoing consultation.&lt;br&gt;Should be same as doctorUI but without camera.&lt;br&gt;&lt;br&gt;get all information from earlier counsultations&lt;br&gt;&lt;/span&gt;" style="rounded=1;whiteSpace=wrap;html=1;fillColor=#d5e8d4;strokeColor=#82b366;" vertex="1" parent="1">
          <mxGeometry x="150" y="570" width="120" height="140" as="geometry" />
        </mxCell>
        <mxCell id="j-nSpoFc9GlK629Phl-X-42" value="Reception/nurse" style="rounded=1;whiteSpace=wrap;html=1;fillColor=#f8cecc;strokeColor=#b85450;" vertex="1" parent="1">
          <mxGeometry x="500" y="360" width="120" height="60" as="geometry" />
        </mxCell>
        <mxCell id="j-nSpoFc9GlK629Phl-X-43" value="" style="edgeStyle=orthogonalEdgeStyle;rounded=0;orthogonalLoop=1;jettySize=auto;html=1;exitX=0;exitY=0.5;exitDx=0;exitDy=0;entryX=1;entryY=0.5;entryDx=0;entryDy=0;endArrow=none;" edge="1" parent="1" source="KH958tpmQruKLJTCNyY8-1" target="j-nSpoFc9GlK629Phl-X-42">
          <mxGeometry relative="1" as="geometry">
            <mxPoint x="650" y="390" as="sourcePoint" />
            <mxPoint x="455" y="390" as="targetPoint" />
          </mxGeometry>
        </mxCell>
        <mxCell id="j-nSpoFc9GlK629Phl-X-48" value="Role" style="edgeLabel;html=1;align=center;verticalAlign=middle;resizable=0;points=[];" vertex="1" connectable="0" parent="j-nSpoFc9GlK629Phl-X-43">
          <mxGeometry x="-0.4657" y="-2" relative="1" as="geometry">
            <mxPoint as="offset" />
          </mxGeometry>
        </mxCell>
        <mxCell id="j-nSpoFc9GlK629Phl-X-47" style="edgeStyle=orthogonalEdgeStyle;rounded=0;orthogonalLoop=1;jettySize=auto;html=1;exitX=0;exitY=0.5;exitDx=0;exitDy=0;entryX=0.5;entryY=1;entryDx=0;entryDy=0;" edge="1" parent="1" source="j-nSpoFc9GlK629Phl-X-44" target="KH958tpmQruKLJTCNyY8-4">
          <mxGeometry relative="1" as="geometry" />
        </mxCell>
        <mxCell id="j-nSpoFc9GlK629Phl-X-44" value="Doctor" style="rounded=1;whiteSpace=wrap;html=1;fillColor=#d5e8d4;strokeColor=#82b366;" vertex="1" parent="1">
          <mxGeometry x="500" y="460" width="120" height="60" as="geometry" />
        </mxCell>
        <mxCell id="j-nSpoFc9GlK629Phl-X-49" value="Role show change the calender. Example if your a doctor you should only be able to see your own schedual.&lt;br&gt;If your an receptionist you should see all doctors scheaduals" style="text;html=1;align=center;verticalAlign=middle;resizable=0;points=[];autosize=1;strokeColor=none;fillColor=none;" vertex="1" parent="1">
          <mxGeometry x="510" y="290" width="590" height="30" as="geometry" />
        </mxCell>
        <mxCell id="j-nSpoFc9GlK629Phl-X-55" value="Inbox, support, feedback" style="rounded=1;whiteSpace=wrap;html=1;fillColor=#d5e8d4;strokeColor=#82b366;gradientColor=#FFCCCC;" vertex="1" parent="1">
          <mxGeometry x="315" y="500" width="100" height="40" as="geometry" />
        </mxCell>
        <mxCell id="0a4VRyAYqJWhRkCxR3qm-4" style="edgeStyle=orthogonalEdgeStyle;rounded=0;orthogonalLoop=1;jettySize=auto;html=1;exitX=0.5;exitY=0;exitDx=0;exitDy=0;entryX=0.824;entryY=1.006;entryDx=0;entryDy=0;entryPerimeter=0;" edge="1" parent="1" source="WykMYdfSnIOiuPiWU4Pm-1" target="Eo_MkPcm0yLQBjZJv3CR-3">
          <mxGeometry relative="1" as="geometry" />
        </mxCell>
        <mxCell id="WykMYdfSnIOiuPiWU4Pm-1" value="&lt;div&gt;If follow up is needed book new time and see if it needed to be physical or it can be digital&lt;/div&gt;" style="rounded=1;whiteSpace=wrap;html=1;fillColor=#d5e8d4;strokeColor=#82b366;" vertex="1" parent="1">
          <mxGeometry x="195" y="450" width="95" height="100" as="geometry" />
        </mxCell>
        <mxCell id="WykMYdfSnIOiuPiWU4Pm-11" style="edgeStyle=orthogonalEdgeStyle;rounded=0;orthogonalLoop=1;jettySize=auto;html=1;exitX=0;exitY=0.5;exitDx=0;exitDy=0;entryX=1;entryY=0.5;entryDx=0;entryDy=0;fillColor=#d5e8d4;strokeColor=#82b366;" edge="1" parent="1" source="WykMYdfSnIOiuPiWU4Pm-10" target="WykMYdfSnIOiuPiWU4Pm-22">
          <mxGeometry relative="1" as="geometry">
            <mxPoint x="270" y="170" as="targetPoint" />
          </mxGeometry>
        </mxCell>
        <mxCell id="0a4VRyAYqJWhRkCxR3qm-7" style="edgeStyle=orthogonalEdgeStyle;rounded=0;orthogonalLoop=1;jettySize=auto;html=1;exitX=0.5;exitY=1;exitDx=0;exitDy=0;fillColor=#f8cecc;strokeColor=#b85450;" edge="1" parent="1" source="WykMYdfSnIOiuPiWU4Pm-10">
          <mxGeometry relative="1" as="geometry">
            <mxPoint x="360" y="250" as="targetPoint" />
          </mxGeometry>
        </mxCell>
        <mxCell id="WykMYdfSnIOiuPiWU4Pm-10" value="Patient is booked" style="rhombus;whiteSpace=wrap;html=1;" vertex="1" parent="1">
          <mxGeometry x="320" y="130" width="80" height="80" as="geometry" />
        </mxCell>
        <mxCell id="WykMYdfSnIOiuPiWU4Pm-16" style="edgeStyle=orthogonalEdgeStyle;rounded=0;orthogonalLoop=1;jettySize=auto;html=1;exitX=0.5;exitY=1;exitDx=0;exitDy=0;fillColor=#d5e8d4;strokeColor=#82b366;" edge="1" parent="1">
          <mxGeometry relative="1" as="geometry">
            <mxPoint x="210" y="270" as="targetPoint" />
            <mxPoint x="210" y="200" as="sourcePoint" />
          </mxGeometry>
        </mxCell>
        <mxCell id="WykMYdfSnIOiuPiWU4Pm-20" style="edgeStyle=orthogonalEdgeStyle;rounded=0;orthogonalLoop=1;jettySize=auto;html=1;exitX=0.5;exitY=0;exitDx=0;exitDy=0;fillColor=#f8cecc;strokeColor=#b85450;" edge="1" parent="1">
          <mxGeometry relative="1" as="geometry">
            <mxPoint x="210" y="90" as="targetPoint" />
            <mxPoint x="210" y="140" as="sourcePoint" />
          </mxGeometry>
        </mxCell>
        <mxCell id="WykMYdfSnIOiuPiWU4Pm-15" style="edgeStyle=orthogonalEdgeStyle;rounded=0;orthogonalLoop=1;jettySize=auto;html=1;exitX=0.5;exitY=1;exitDx=0;exitDy=0;entryX=0.5;entryY=0;entryDx=0;entryDy=0;" edge="1" parent="1" source="WykMYdfSnIOiuPiWU4Pm-14" target="WykMYdfSnIOiuPiWU4Pm-10">
          <mxGeometry relative="1" as="geometry" />
        </mxCell>
        <mxCell id="WykMYdfSnIOiuPiWU4Pm-14" value="Patient comes in&lt;br&gt;Check calender" style="rounded=1;whiteSpace=wrap;html=1;" vertex="1" parent="1">
          <mxGeometry x="300" y="10" width="120" height="60" as="geometry" />
        </mxCell>
        <mxCell id="0a4VRyAYqJWhRkCxR3qm-12" style="edgeStyle=orthogonalEdgeStyle;rounded=0;orthogonalLoop=1;jettySize=auto;html=1;exitX=0.5;exitY=1;exitDx=0;exitDy=0;entryX=0.5;entryY=0;entryDx=0;entryDy=0;" edge="1" parent="1" source="WykMYdfSnIOiuPiWU4Pm-17" target="Eo_MkPcm0yLQBjZJv3CR-3">
          <mxGeometry relative="1" as="geometry" />
        </mxCell>
        <mxCell id="WykMYdfSnIOiuPiWU4Pm-17" value="If payment is accepted&lt;br&gt;patient assigned to doctor" style="rounded=1;whiteSpace=wrap;html=1;" vertex="1" parent="1">
          <mxGeometry x="150" y="270" width="120" height="60" as="geometry" />
        </mxCell>
        <mxCell id="WykMYdfSnIOiuPiWU4Pm-21" value="if payment denied booking is removed" style="rounded=1;whiteSpace=wrap;html=1;" vertex="1" parent="1">
          <mxGeometry x="150" y="30" width="120" height="60" as="geometry" />
        </mxCell>
        <mxCell id="WykMYdfSnIOiuPiWU4Pm-22" value="&lt;span&gt;get payment&lt;/span&gt;" style="rhombus;whiteSpace=wrap;html=1;" vertex="1" parent="1">
          <mxGeometry x="170" y="130" width="80" height="80" as="geometry" />
        </mxCell>
        <mxCell id="0a4VRyAYqJWhRkCxR3qm-11" style="edgeStyle=orthogonalEdgeStyle;rounded=0;orthogonalLoop=1;jettySize=auto;html=1;exitX=1;exitY=0.5;exitDx=0;exitDy=0;entryX=1;entryY=0.5;entryDx=0;entryDy=0;" edge="1" parent="1" source="0a4VRyAYqJWhRkCxR3qm-8" target="WykMYdfSnIOiuPiWU4Pm-14">
          <mxGeometry relative="1" as="geometry" />
        </mxCell>
        <mxCell id="0a4VRyAYqJWhRkCxR3qm-8" value="Book visit" style="rounded=1;whiteSpace=wrap;html=1;" vertex="1" parent="1">
          <mxGeometry x="312.5" y="250" width="95" height="40" as="geometry" />
        </mxCell>
      </root>
    </mxGraphModel>
  </diagram>
  <diagram id="uNCJwwcuRE-niacvfKL2" name="Hospital admin">
    <mxGraphModel dx="1038" dy="555" grid="1" gridSize="10" guides="1" tooltips="1" connect="1" arrows="1" fold="1" page="1" pageScale="1" pageWidth="827" pageHeight="1169" math="0" shadow="0">
      <root>
        <mxCell id="0" />
        <mxCell id="1" parent="0" />
        <mxCell id="DCxhr9Fw1Wyl5EYLCoC--1" style="edgeStyle=orthogonalEdgeStyle;rounded=0;orthogonalLoop=1;jettySize=auto;html=1;exitX=0;exitY=0.5;exitDx=0;exitDy=0;entryX=1;entryY=0.5;entryDx=0;entryDy=0;fillColor=#f8cecc;strokeColor=#b85450;" edge="1" parent="1" source="DCxhr9Fw1Wyl5EYLCoC--2" target="DCxhr9Fw1Wyl5EYLCoC--11">
          <mxGeometry relative="1" as="geometry" />
        </mxCell>
        <mxCell id="DCxhr9Fw1Wyl5EYLCoC--2" value="Admin login" style="rhombus;whiteSpace=wrap;html=1;shadow=0;fontFamily=Helvetica;fontSize=12;align=center;strokeWidth=1;spacing=6;spacingTop=-4;fillColor=#d5e8d4;strokeColor=#82b366;" vertex="1" parent="1">
          <mxGeometry x="690" y="330" width="100" height="80" as="geometry" />
        </mxCell>
        <mxCell id="DCxhr9Fw1Wyl5EYLCoC--3" style="edgeStyle=orthogonalEdgeStyle;rounded=0;orthogonalLoop=1;jettySize=auto;html=1;exitX=0.75;exitY=0;exitDx=0;exitDy=0;entryX=0.5;entryY=1;entryDx=0;entryDy=0;" edge="1" parent="1" source="DCxhr9Fw1Wyl5EYLCoC--6" target="DCxhr9Fw1Wyl5EYLCoC--9">
          <mxGeometry relative="1" as="geometry" />
        </mxCell>
        <mxCell id="DCxhr9Fw1Wyl5EYLCoC--4" style="edgeStyle=orthogonalEdgeStyle;rounded=0;orthogonalLoop=1;jettySize=auto;html=1;exitX=0.25;exitY=0;exitDx=0;exitDy=0;entryX=0.5;entryY=1;entryDx=0;entryDy=0;" edge="1" parent="1" source="DCxhr9Fw1Wyl5EYLCoC--6" target="DCxhr9Fw1Wyl5EYLCoC--7">
          <mxGeometry relative="1" as="geometry" />
        </mxCell>
        <mxCell id="9fIKpsjLdPCjSCW6WumT-6" style="edgeStyle=orthogonalEdgeStyle;rounded=0;orthogonalLoop=1;jettySize=auto;html=1;exitX=0.75;exitY=1;exitDx=0;exitDy=0;entryX=0.358;entryY=0;entryDx=0;entryDy=0;entryPerimeter=0;" edge="1" parent="1" source="DCxhr9Fw1Wyl5EYLCoC--6" target="DCxhr9Fw1Wyl5EYLCoC--17">
          <mxGeometry relative="1" as="geometry" />
        </mxCell>
        <mxCell id="9fIKpsjLdPCjSCW6WumT-11" style="edgeStyle=orthogonalEdgeStyle;rounded=0;orthogonalLoop=1;jettySize=auto;html=1;exitX=0;exitY=0.5;exitDx=0;exitDy=0;" edge="1" parent="1" source="DCxhr9Fw1Wyl5EYLCoC--6" target="9fIKpsjLdPCjSCW6WumT-9">
          <mxGeometry relative="1" as="geometry" />
        </mxCell>
        <mxCell id="pOzytg41lzjnKgslve0z-1" style="edgeStyle=orthogonalEdgeStyle;rounded=0;orthogonalLoop=1;jettySize=auto;html=1;exitX=0.25;exitY=1;exitDx=0;exitDy=0;" edge="1" parent="1" source="DCxhr9Fw1Wyl5EYLCoC--6">
          <mxGeometry relative="1" as="geometry">
            <mxPoint x="253" y="500" as="targetPoint" />
          </mxGeometry>
        </mxCell>
        <mxCell id="DCxhr9Fw1Wyl5EYLCoC--6" value="Admin dashboard" style="rounded=1;whiteSpace=wrap;html=1;fontSize=12;glass=0;strokeWidth=1;shadow=0;fillColor=#fff2cc;strokeColor=#d6b656;" vertex="1" parent="1">
          <mxGeometry x="223" y="350" width="120" height="40" as="geometry" />
        </mxCell>
        <mxCell id="DCxhr9Fw1Wyl5EYLCoC--7" value="Update hospital admin profile" style="rounded=1;whiteSpace=wrap;html=1;fillColor=#fff2cc;strokeColor=#d6b656;" vertex="1" parent="1">
          <mxGeometry x="60" y="250" width="120" height="60" as="geometry" />
        </mxCell>
        <mxCell id="DCxhr9Fw1Wyl5EYLCoC--9" value="Add nurse, doctor, receptionist" style="rounded=1;whiteSpace=wrap;html=1;fillColor=#fff2cc;strokeColor=#d6b656;" vertex="1" parent="1">
          <mxGeometry x="253" y="230" width="120" height="50" as="geometry" />
        </mxCell>
        <mxCell id="DCxhr9Fw1Wyl5EYLCoC--10" style="edgeStyle=orthogonalEdgeStyle;rounded=0;orthogonalLoop=1;jettySize=auto;html=1;exitX=0;exitY=0.5;exitDx=0;exitDy=0;entryX=1;entryY=0.5;entryDx=0;entryDy=0;fillColor=#d5e8d4;strokeColor=#82b366;" edge="1" parent="1" source="DCxhr9Fw1Wyl5EYLCoC--11" target="DCxhr9Fw1Wyl5EYLCoC--6">
          <mxGeometry relative="1" as="geometry" />
        </mxCell>
        <mxCell id="DCxhr9Fw1Wyl5EYLCoC--11" value="Agreements&lt;br&gt;Only once" style="rounded=1;whiteSpace=wrap;html=1;" vertex="1" parent="1">
          <mxGeometry x="440" y="340" width="120" height="60" as="geometry" />
        </mxCell>
        <mxCell id="DCxhr9Fw1Wyl5EYLCoC--12" value="If agreement False" style="text;html=1;align=center;verticalAlign=middle;resizable=0;points=[];autosize=1;strokeColor=none;fillColor=none;" vertex="1" parent="1">
          <mxGeometry x="560" y="340" width="120" height="20" as="geometry" />
        </mxCell>
        <mxCell id="DCxhr9Fw1Wyl5EYLCoC--13" value="Else jump straight &lt;br&gt;to dashboard" style="text;html=1;align=center;verticalAlign=middle;resizable=0;points=[];autosize=1;strokeColor=none;fillColor=none;" vertex="1" parent="1">
          <mxGeometry x="565" y="380" width="110" height="30" as="geometry" />
        </mxCell>
        <mxCell id="DCxhr9Fw1Wyl5EYLCoC--14" value="True" style="text;html=1;align=center;verticalAlign=middle;resizable=0;points=[];autosize=1;strokeColor=none;fillColor=none;" vertex="1" parent="1">
          <mxGeometry x="390" y="350" width="40" height="20" as="geometry" />
        </mxCell>
        <mxCell id="DCxhr9Fw1Wyl5EYLCoC--15" style="edgeStyle=orthogonalEdgeStyle;rounded=0;orthogonalLoop=1;jettySize=auto;html=1;exitX=0.5;exitY=1;exitDx=0;exitDy=0;" edge="1" parent="1">
          <mxGeometry relative="1" as="geometry">
            <mxPoint x="800" y="300" as="sourcePoint" />
            <mxPoint x="800" y="300" as="targetPoint" />
          </mxGeometry>
        </mxCell>
        <mxCell id="DCxhr9Fw1Wyl5EYLCoC--17" value="inbox/support/feedback" style="rounded=1;whiteSpace=wrap;html=1;fillColor=#fff2cc;strokeColor=#d6b656;" vertex="1" parent="1">
          <mxGeometry x="270" y="440" width="130" height="40" as="geometry" />
        </mxCell>
        <mxCell id="9fIKpsjLdPCjSCW6WumT-12" style="edgeStyle=orthogonalEdgeStyle;rounded=0;orthogonalLoop=1;jettySize=auto;html=1;exitX=0.5;exitY=1;exitDx=0;exitDy=0;fillColor=#d5e8d4;strokeColor=#82b366;" edge="1" parent="1" source="9fIKpsjLdPCjSCW6WumT-9">
          <mxGeometry relative="1" as="geometry">
            <mxPoint x="110" y="520" as="targetPoint" />
          </mxGeometry>
        </mxCell>
        <mxCell id="9fIKpsjLdPCjSCW6WumT-9" value="If lab" style="rhombus;whiteSpace=wrap;html=1;fillColor=#fff2cc;strokeColor=#d6b656;" vertex="1" parent="1">
          <mxGeometry x="70" y="390" width="80" height="80" as="geometry" />
        </mxCell>
        <mxCell id="9fIKpsjLdPCjSCW6WumT-13" value="LabAdmin" style="rounded=1;whiteSpace=wrap;html=1;fillColor=#e1d5e7;strokeColor=#9673a6;" vertex="1" parent="1">
          <mxGeometry x="50" y="520" width="120" height="50" as="geometry" />
        </mxCell>
        <mxCell id="pOzytg41lzjnKgslve0z-2" value="Billing" style="rounded=1;whiteSpace=wrap;html=1;fillColor=#fff2cc;strokeColor=#d6b656;" vertex="1" parent="1">
          <mxGeometry x="210" y="500" width="90" height="20" as="geometry" />
        </mxCell>
        <mxCell id="PZtAYqqffDP3-qHh6qlO-1" value="&lt;span style=&quot;color: rgb(0 , 0 , 0) ; font-family: &amp;#34;helvetica&amp;#34; ; font-size: 12px ; font-style: normal ; font-weight: 400 ; letter-spacing: normal ; text-align: center ; text-indent: 0px ; text-transform: none ; word-spacing: 0px ; background-color: rgb(248 , 249 , 250) ; display: inline ; float: none&quot;&gt;Need approval from carelyo businiess&lt;/span&gt;" style="text;whiteSpace=wrap;html=1;" vertex="1" parent="1">
          <mxGeometry x="800" y="330" width="170" height="30" as="geometry" />
        </mxCell>
        <mxCell id="0ZyDofUef0M1idxFs1Ai-1" style="edgeStyle=orthogonalEdgeStyle;rounded=0;orthogonalLoop=1;jettySize=auto;html=1;exitX=0;exitY=0.5;exitDx=0;exitDy=0;fillColor=#f8cecc;strokeColor=#b85450;" edge="1" parent="1" source="0ZyDofUef0M1idxFs1Ai-2">
          <mxGeometry relative="1" as="geometry">
            <mxPoint x="790" y="372" as="targetPoint" />
          </mxGeometry>
        </mxCell>
        <mxCell id="0ZyDofUef0M1idxFs1Ai-2" value="Login page" style="rounded=1;whiteSpace=wrap;html=1;fontSize=12;glass=0;strokeWidth=1;shadow=0;fillColor=#d5e8d4;strokeColor=#82b366;" vertex="1" parent="1">
          <mxGeometry x="890" y="352" width="120" height="40" as="geometry" />
        </mxCell>
      </root>
    </mxGraphModel>
  </diagram>
</mxfile>
